<svg width="48" height="48" viewBox="0 0 48 48" fill="none" xmlns="http://www.w3.org/2000/svg">
<g clip-path="url(#clip0_853_13098)">
<path d="M24.0002 48.0002C37.2551 48.0002 48.0002 37.255 48.0002 24.0001C48.0002 10.7452 37.2551 0 24.0002 0C10.7454 0 0.000244141 10.7452 0.000244141 24.0001C0.000244141 37.255 10.7454 48.0002 24.0002 48.0002Z" fill="url(#paint0_linear_853_13098)"/>
<path d="M14.6403 11.76L24.0002 6.23999L33.3602 11.76L30.0002 13.68L24.0002 10.32L18.0002 13.68L14.6403 11.76ZM33.3602 18.48L30.0002 16.56L24.0002 19.92L18.0002 16.56L14.6403 18.48V22.5601L20.6402 25.9201V32.8801L24.0002 34.8001L27.3602 32.8801V25.9201L33.3602 22.5601V18.48ZM33.3602 29.5201V25.4401L30.0002 27.3601V31.4401L33.3602 29.5201ZM35.7602 30.7201L29.7602 34.0801V38.1601L39.1202 32.6401V21.84L35.7602 24.0001V30.7201ZM32.4002 15.12L35.7602 17.04V21.12L39.1202 19.2V15.12L35.7602 13.2L32.4002 15.12ZM20.6402 35.7601V39.8401L24.0002 41.7601L27.3602 39.8401V35.7601L24.0002 37.6801L20.6402 35.7601ZM14.6403 29.5201L18.0002 31.4401V27.3601L14.6403 25.4401V29.5201ZM20.6402 15.12L24.0002 17.04L27.3602 15.12L24.0002 13.2L20.6402 15.12ZM12.2403 17.04L15.6002 15.12L12.2403 13.2L8.88025 15.12V19.2L12.2403 21.12V17.04ZM12.2403 24.0001L8.88025 22.0801V32.8801L18.2402 38.4001V34.3201L12.2403 30.9601V24.0001V24.0001Z" fill="#76808F"/>
</g>
<defs>
<linearGradient id="paint0_linear_853_13098" x1="24.0002" y1="0" x2="24.0002" y2="48.0002" gradientUnits="userSpaceOnUse">
<stop stop-color="#F8D33A"/>
<stop offset="1" stop-color="#F0B90B"/>
</linearGradient>
<clipPath id="clip0_853_13098">
<rect width="48" height="48.0002" fill="white"/>
</clipPath>
</defs>
</svg>
