<svg width="48" height="48" viewBox="0 0 48 48" fill="none" xmlns="http://www.w3.org/2000/svg">
<path d="M47.2859 29.7995C44.0935 42.675 31.0402 50.4783 18.1997 47.286C5.35927 44.0937 -2.47981 31.0409 0.712568 18.2009C3.90495 5.32541 16.9228 -2.4779 29.7987 0.714364C42.6746 3.9421 50.4782 16.9595 47.2859 29.7995Z" fill="url(#paint0_linear_1286_7684)"/>
<path d="M34.399 20.4325C34.8601 17.2403 32.4481 15.5377 29.1139 14.3672L30.178 10.0399L27.5531 9.366L26.489 13.5869C25.7796 13.4095 25.0702 13.2677 24.3962 13.0903L25.4603 8.83396L22.8355 8.16003L21.7714 12.4873C21.2038 12.3455 20.6363 12.239 20.1042 12.0972L16.4862 11.175L15.7768 13.9771C15.7768 13.9771 17.7277 14.4382 17.6922 14.4382C18.7563 14.7219 18.9692 15.3958 18.9337 15.9634L17.6922 20.8936C17.7631 20.9291 17.8696 20.9291 17.976 20.9646C17.905 20.9291 17.7986 20.9291 17.6922 20.8936L15.9541 27.8102C15.8122 28.1294 15.493 28.626 14.7481 28.4487C14.7836 28.4841 12.8327 27.9876 12.8327 27.9876L11.5203 31.0025L14.961 31.8538C15.5994 32.0311 16.2379 32.173 16.8409 32.3503L15.7413 36.7131L18.3662 37.387L19.4303 33.0597C20.1397 33.2725 20.8491 33.4499 21.5231 33.5918L20.459 37.8836L23.0838 38.5575L24.1834 34.1948C28.6882 35.046 32.0579 34.6913 33.4768 30.6478C34.6118 27.3846 33.4058 25.5047 31.0648 24.2633C32.7674 23.9086 34.0443 22.7735 34.399 20.4325ZM28.3689 28.8743C27.5531 32.1375 22.0552 30.364 20.2461 29.9384L21.7004 24.1568C23.5094 24.5825 29.2202 25.4692 28.3689 28.8743ZM29.1848 20.3971C28.4399 23.3765 23.8642 21.8513 22.3744 21.4966L23.6868 16.2471C25.1766 16.6018 29.9651 17.2757 29.1848 20.3971Z" fill="#76808F"/>
<defs>
<linearGradient id="paint0_linear_1286_7684" x1="24.0002" y1="0" x2="24.0002" y2="48.0004" gradientUnits="userSpaceOnUse">
<stop stop-color="#FBDA3C"/>
<stop offset="0.572917" stop-color="#F0B90B"/>
</linearGradient>
</defs>
</svg>
