<svg width="48" height="48" viewBox="0 0 48 48" fill="none" xmlns="http://www.w3.org/2000/svg">
<path d="M24.2025 45.7426C36.1029 45.7426 45.75 36.0954 45.75 24.195C45.75 12.2946 36.1029 2.64746 24.2025 2.64746C12.3022 2.64746 2.65503 12.2946 2.65503 24.195C2.65503 36.0954 12.3022 45.7426 24.2025 45.7426Z" fill="url(#paint0_linear_871_13691)"/>
<path d="M30.4559 13.7752L13.8173 30.4138L17.9721 34.5686L34.6107 17.93L30.4559 13.7752Z" fill="#76808F"/>
<path d="M24.4768 7.78885L14.0819 18.1874L18.0242 22.1283L28.419 11.7297L24.4768 7.78885Z" fill="#76808F"/>
<path d="M12.0299 20.2331L7.83057 24.4338L11.7728 28.3747L15.9721 24.174L12.0299 20.2331Z" fill="#76808F"/>
<path d="M36.6531 19.9759L20.0145 36.6145L23.8915 40.4915L40.53 23.8529L36.6531 19.9759Z" fill="#76808F"/>
<defs>
<linearGradient id="paint0_linear_871_13691" x1="24.2025" y1="2.64746" x2="24.2025" y2="45.7426" gradientUnits="userSpaceOnUse">
<stop stop-color="#F0B90B"/>
<stop offset="1" stop-color="#F8D33A"/>
</linearGradient>
</defs>
</svg>
