<svg width="372" height="32" viewBox="0 0 372 32" fill="none" xmlns="http://www.w3.org/2000/svg">
<path d="M7.26853 16.0198L3.63427 19.6283L0 16.0198L3.63427 12.4114L7.26853 16.0198ZM16.1345 7.21685L22.3647 13.4424L25.999 9.83395L19.7688 3.60843L16.1345 0L12.5003 3.60843L6.23017 9.83395L9.86443 13.4424L16.1345 7.21685ZM28.6348 12.4114L25.0006 16.0198L28.6348 19.6283L32.2691 16.0198L28.6348 12.4114ZM16.1345 24.7831L9.90437 18.5973L6.23017 22.2057L12.4603 28.3916L16.0946 32L19.7289 28.3916L25.999 22.2057L22.3647 18.5973L16.1345 24.7831ZM16.1345 19.6283L19.7688 16.0198L16.1345 12.4114L12.5003 16.0198L16.1345 19.6283ZM54.5939 19.9851V19.9455C54.5939 17.6059 53.3159 16.4164 51.2791 15.6233C52.5571 14.9095 53.5954 13.7993 53.5954 11.8166V11.777C53.5954 9.00124 51.359 7.21685 47.7646 7.21685H39.5376V24.7831H47.9643C51.958 24.7831 54.5939 23.197 54.5939 19.9851ZM49.7215 12.4907C49.7215 13.7993 48.6432 14.3544 46.926 14.3544H43.3316V10.627H47.1656C48.803 10.627 49.7215 11.2615 49.7215 12.4511V12.4907ZM50.72 19.5093C50.72 20.8178 49.6816 21.4126 47.9643 21.4126H43.3316V17.5663H47.8445C49.8414 17.5663 50.72 18.28 50.72 19.4696V19.5093ZM62.741 24.7831V7.21685H58.8671V24.7831H62.741ZM83.668 24.7831V7.21685H79.834V18.0421L71.5271 7.21685H67.9328V24.7831H71.7668V13.6406L80.3532 24.8228H83.668V24.7831ZM105.234 24.7831L97.6459 7.09789H94.0516L86.4636 24.7831H90.4173L92.0547 20.8575H99.523L101.16 24.7831H105.234ZM98.1651 17.4473H93.4525L95.8088 11.7373L98.1651 17.4473ZM123.765 24.7831V7.21685H119.931V18.0421L111.624 7.21685H108.03V24.7831H111.863V13.6406L120.45 24.8228H123.765V24.7831ZM143.893 21.9678L141.417 19.4696C140.019 20.7385 138.781 21.5316 136.784 21.5316C133.749 21.5316 131.672 19.0335 131.672 16.0198V15.9802C131.672 12.9665 133.829 10.5081 136.784 10.5081C138.541 10.5081 139.939 11.2615 141.297 12.4907L143.773 9.63569C142.136 8.00991 140.139 6.93928 136.784 6.93928C131.353 6.93928 127.559 11.0235 127.559 16.0198V16.0595C127.559 21.0954 131.433 25.1004 136.624 25.1004C140.019 25.1004 142.056 23.9108 143.893 21.9678ZM160.467 24.7831V21.3333H150.882V17.6456H159.229V14.1958H150.882V10.627H160.347V7.1772H147.008V24.7435H160.467V24.7831Z" fill="#F0B90B"/>
<path d="M171.744 7.22774V24.7422H174.822V7.22774H171.744Z" fill="#1E2026"/>
<path d="M191.745 19.3377L182.362 7.22774H179.51V24.7422H182.537V12.2819L192.195 24.7422H194.773V7.22774H191.745V19.3377Z" fill="#1E2026"/>
<path d="M201.879 11.8065C201.879 10.6305 202.93 9.70478 204.732 9.70478C206.333 9.70478 207.909 10.3303 209.486 11.5063L211.137 9.17935C209.361 7.75317 207.334 6.97753 204.782 6.97753C201.304 6.97753 198.802 9.02922 198.802 12.0817C198.802 15.3344 200.904 16.4353 204.632 17.3361C207.884 18.0867 208.585 18.7622 208.585 20.0383C208.585 21.3894 207.384 22.2651 205.482 22.2651C203.306 22.2651 201.629 21.4395 199.953 19.9883L198.101 22.1901C200.203 24.0666 202.73 24.9924 205.407 24.9924C209.085 24.9924 211.662 23.0408 211.662 19.7381C211.662 16.8106 209.736 15.4845 206.033 14.5838C202.68 13.7831 201.879 13.1826 201.879 11.8065Z" fill="#1E2026"/>
<path d="M222.321 10.0801H227.876V7.22774H213.664V10.0801H219.219V24.7422H222.321V10.0801Z" fill="#1E2026"/>
<path d="M231.315 7.22774V24.7422H234.392V7.22774H231.315Z" fill="#1E2026"/>
<path d="M246.487 10.0801H252.041V7.22774H237.83V10.0801H243.384V24.7422H246.487V10.0801Z" fill="#1E2026"/>
<path d="M270.017 7.22774H266.94V17.3111C266.94 20.5387 265.263 22.1901 262.536 22.1901C259.784 22.1901 258.107 20.4386 258.107 17.186V7.22774H255.03V17.3111C255.03 22.3902 257.932 25.0174 262.486 25.0174C267.065 25.0174 270.017 22.3902 270.017 17.1609V7.22774Z" fill="#1E2026"/>
<path d="M281.648 10.0801H287.202V7.22774H272.99V10.0801H278.545V24.7422H281.648V10.0801Z" fill="#1E2026"/>
<path d="M290.641 7.22774V24.7422H293.718V7.22774H290.641Z" fill="#1E2026"/>
<path d="M315.946 15.9599C315.946 11.0059 312.193 6.92749 306.814 6.92749C301.434 6.92749 297.631 11.0559 297.631 16.01C297.631 20.9641 301.384 25.0424 306.764 25.0424C312.143 25.0424 315.946 20.914 315.946 15.9599ZM312.719 16.01C312.719 19.4378 310.292 22.2151 306.814 22.2151C303.336 22.2151 300.859 19.3878 300.859 15.9599C300.859 12.5321 303.286 9.75482 306.764 9.75482C310.242 9.75482 312.719 12.5822 312.719 16.01Z" fill="#1E2026"/>
<path d="M331.9 19.3377L322.517 7.22774H319.665V24.7422H322.692V12.2819L332.35 24.7422H334.927V7.22774H331.9V19.3377Z" fill="#1E2026"/>
<path d="M348.489 7.10263H345.637L337.931 24.7422H341.083L342.885 20.5137H351.167L352.943 24.7422H356.196L348.489 7.10263ZM350.041 17.7864H344.011L347.013 10.7807L350.041 17.7864Z" fill="#1E2026"/>
<path d="M359.199 24.7422H371.484V21.9399H362.277V7.22774H359.199V24.7422Z" fill="#1E2026"/>
</svg>
