<svg width="360" height="226" viewBox="0 0 360 226" fill="none" xmlns="http://www.w3.org/2000/svg">
<path d="M226.354 89.8918L170.039 146.206L165.238 141.404L221.553 85.09L226.354 89.8918Z" fill="#76808F"/>
<path fill-rule="evenodd" clip-rule="evenodd" d="M177.122 112.252C185.56 112.252 192.401 105.411 192.401 96.973C192.401 88.5346 185.56 81.6938 177.122 81.6938C168.683 81.6938 161.842 88.5346 161.842 96.973C161.842 105.411 168.683 112.252 177.122 112.252ZM177.122 90.1823L170.331 96.973L177.122 103.764L183.912 96.973L177.122 90.1823Z" fill="url(#paint0_linear_1173_21588)"/>
<path fill-rule="evenodd" clip-rule="evenodd" d="M214.471 149.601C222.909 149.601 229.75 142.761 229.75 134.322C229.75 125.884 222.909 119.043 214.471 119.043C206.032 119.043 199.192 125.884 199.192 134.322C199.192 142.761 206.032 149.601 214.471 149.601ZM214.471 127.531L207.68 134.322L214.471 141.113L221.261 134.322L214.471 127.531Z" fill="url(#paint1_linear_1173_21588)"/>
<path d="M195.796 11.6095C138.337 11.6095 91.7581 58.1889 91.7581 115.647C91.7581 173.106 138.337 219.685 195.796 219.685C224.525 219.685 250.535 208.04 269.362 189.213L232.579 152.43C223.165 161.844 210.161 167.666 195.796 167.666C167.067 167.666 143.777 144.377 143.777 115.647C143.777 86.9182 167.067 63.6285 195.796 63.6285V11.6095Z" fill="url(#paint2_linear_1173_21588)"/>
<path d="M299.834 115.647C299.834 58.1886 253.255 11.6092 195.796 11.6092V63.6282C224.525 63.6282 247.815 86.9178 247.815 115.647C247.815 130.012 241.993 143.016 232.579 152.43L269.362 189.213C288.189 170.386 299.834 144.376 299.834 115.647Z" fill="#76808F"/>
<rect width="17.681" height="17.681" transform="matrix(-0.707107 -0.707107 -0.707107 0.707107 73.0047 87.9089)" fill="#CACED3"/>
<rect width="16.418" height="16.418" transform="matrix(-0.707107 -0.707107 -0.707107 0.707107 285.992 11.6093)" fill="#CACED3"/>
<rect width="12.6293" height="12.6293" transform="matrix(-1 8.74228e-08 8.74228e-08 1 312.463 213.371)" fill="#CACED3"/>
<defs>
<linearGradient id="paint0_linear_1173_21588" x1="177.122" y1="112.252" x2="177.122" y2="81.6938" gradientUnits="userSpaceOnUse">
<stop stop-color="#F0B90B"/>
<stop offset="1" stop-color="#F8D33A"/>
</linearGradient>
<linearGradient id="paint1_linear_1173_21588" x1="214.471" y1="149.601" x2="214.471" y2="119.043" gradientUnits="userSpaceOnUse">
<stop stop-color="#F0B90B"/>
<stop offset="1" stop-color="#F8D33A"/>
</linearGradient>
<linearGradient id="paint2_linear_1173_21588" x1="180.56" y1="219.685" x2="180.56" y2="11.6095" gradientUnits="userSpaceOnUse">
<stop stop-color="#F0B90B"/>
<stop offset="1" stop-color="#F8D33A"/>
</linearGradient>
</defs>
</svg>
