<svg width="211" height="76" viewBox="0 0 211 76" fill="none" xmlns="http://www.w3.org/2000/svg">
<g clip-path="url(#clip0_4560_63176)">
<path fill-rule="evenodd" clip-rule="evenodd" d="M68.5986 41.4508V44.437C68.5986 52.7332 56.4109 57.5081 52.6751 58.7744L51.3164 59.2383V54.0772L51.9801 53.8297C57.7924 51.6691 63.6568 47.9267 63.6568 44.437V41.4508H68.5986ZM50.1405 16.9668L55.1211 18.4837V23.7494L50.1405 22.2274L49.8147 22.3271V34.1749H55.1211V39.0564H49.8147V59.166L48.431 58.6569C47.7887 58.4211 46.7539 58.0193 45.4737 57.4458L44.8723 57.1746V18.5725L50.1405 16.9668ZM43.3089 19.0683V24.3102L36.5604 26.3793V34.1748H43.3089V56.7527L41.8143 55.9934C37.1631 53.629 31.6187 49.642 31.6187 44.0751V41.4508H36.5604V44.0751C36.5604 45.227 37.1674 46.4372 38.3665 47.6834V39.0563H31.6187V22.6323L43.3089 19.0683ZM56.6212 18.9435L68.5986 22.6045V39.0564H61.5663V46.1801C61.5663 46.1801 59.9941 48.2158 56.6257 49.9203C56.6257 48.9782 56.6236 34.4937 56.6222 25.6693L56.6212 18.9435ZM150.404 26.5137C154.516 26.5028 157.857 29.7857 157.868 33.8463C157.879 37.9068 154.555 41.2073 150.444 41.2182L145.707 41.2304L145.729 49.4422L141.862 49.4525L141.8 26.5364L150.404 26.5137ZM132.26 33.581C136.692 33.581 140.284 37.1292 140.284 41.5061C140.284 42.1988 140.194 42.8708 140.025 43.5113L128.631 43.5115C129.343 44.7648 130.701 45.6119 132.26 45.6119C133.004 45.6119 133.702 45.4191 134.306 45.0811V45.094L138.53 46.452C137.06 48.2681 134.797 49.4313 132.26 49.4313C127.828 49.4313 124.236 45.8831 124.236 41.5061C124.236 37.1292 127.828 33.581 132.26 33.581ZM123.462 26.5152V30.3345H122.495C121.021 30.3345 119.821 31.4994 119.789 32.9485L119.788 33.581H123.462V37.4003H119.788V49.4313H115.921V37.4003H114.181V33.581H115.921V32.2442C115.921 29.0803 118.519 26.5152 121.722 26.5152H123.462ZM104.607 33.5809C104.627 33.5809 104.648 33.5826 104.67 33.5826C104.781 33.5826 104.891 33.5862 105.002 33.5918C106.462 33.6605 107.82 34.115 108.973 34.8543L112.634 33.6411V49.4312H108.805V48.2623C108.562 48.4103 108.308 48.5461 108.048 48.6679V48.6589C107.657 48.8461 107.255 48.9992 106.843 49.1192L106.764 49.1405C106.666 49.1667 106.566 49.1913 106.466 49.2162L106.314 49.2515C106.234 49.2674 106.154 49.2832 106.073 49.2971C106.011 49.3096 105.95 49.3203 105.888 49.3309C105.809 49.3432 105.731 49.352 105.65 49.3626C105.59 49.3712 105.529 49.38 105.466 49.3854C105.37 49.3959 105.272 49.4033 105.175 49.4102C105.131 49.4117 105.086 49.4173 105.043 49.4192C104.898 49.4276 104.752 49.4312 104.606 49.4312C102.815 49.4312 101.164 48.8512 99.8281 47.8708C99.5193 47.6378 99.2213 47.3823 98.9336 47.0983C98.6587 46.8268 98.4108 46.5449 98.182 46.2522C97.2483 45.0195 96.67 43.5101 96.595 41.8702C96.5896 41.761 96.5859 41.6518 96.5859 41.5406V41.5001C96.5896 37.1289 100.178 33.5847 104.604 33.5809H104.607ZM165.514 33.5809C165.534 33.5809 165.555 33.5826 165.577 33.5826C165.687 33.5826 165.798 33.5862 165.909 33.5918C167.369 33.6605 168.726 34.115 169.88 34.8543L173.541 33.6411V49.4312H169.712V48.2623C169.469 48.4103 169.215 48.5461 168.955 48.6679V48.6589C168.564 48.8461 168.162 48.9992 167.75 49.1192L167.671 49.1405C167.573 49.1667 167.473 49.1913 167.373 49.2162L167.221 49.2515C167.141 49.2674 167.061 49.2832 166.98 49.2971C166.918 49.3096 166.857 49.3203 166.795 49.3309C166.716 49.3432 166.637 49.352 166.557 49.3626C166.496 49.3712 166.436 49.38 166.373 49.3854C166.277 49.3959 166.178 49.4033 166.082 49.4102C166.038 49.4117 165.993 49.4173 165.95 49.4192C165.805 49.4276 165.659 49.4312 165.512 49.4312C163.722 49.4312 162.07 48.8512 160.735 47.8708C160.426 47.6378 160.128 47.3823 159.841 47.0983C159.565 46.8268 159.318 46.5449 159.089 46.2522C158.155 45.0195 157.577 43.5101 157.502 41.8702C157.496 41.761 157.493 41.6518 157.493 41.5406V41.5001C157.496 37.1289 161.085 33.5847 165.511 33.5809H165.514ZM178.955 26.5954V49.4313H175.088V27.8363L178.955 26.5954ZM86.4532 26.5151C90.1102 26.5151 92.9084 28.3726 94.403 31.4571C91.9664 32.238 90.5912 32.677 90.2772 32.7737C89.4854 31.5404 88.333 30.7332 86.4532 30.7332C84.6088 30.7332 83.5276 31.6777 83.5276 32.9366C83.5276 34.2901 84.3863 35.0141 87.757 36.0215C91.2867 37.1232 95.039 38.2879 95.039 42.7895C95.039 46.9129 91.7001 49.4312 86.962 49.4312C82.4146 49.4312 79.4256 47.2593 78.2171 43.9854C79.9706 43.4308 81.3752 43.0258 82.4307 42.7703C83.3155 44.2625 84.7823 45.1816 87.0892 45.1816C89.7287 45.1816 90.6508 44.0801 90.6508 42.8524C90.6508 41.2156 89.1561 40.586 85.849 39.6414C82.4463 38.6658 79.1394 37.2492 79.1394 33.0628C79.1394 28.9073 82.6374 26.5151 86.4532 26.5151ZM104.514 37.2093C102.165 37.2093 100.26 39.0907 100.26 41.4117C100.26 43.7304 102.165 45.6119 104.514 45.6119C106.863 45.6119 108.767 43.7304 108.767 41.4117C108.767 39.0907 106.863 37.2093 104.514 37.2093ZM165.421 37.2093C163.071 37.2093 161.166 39.0907 161.166 41.4117C161.166 43.7304 163.071 45.6119 165.421 45.6119C167.77 45.6119 169.674 43.7304 169.674 41.4117C169.674 39.0907 167.77 37.2093 165.421 37.2093ZM132.26 37.4003C130.623 37.4003 129.208 38.3344 128.529 39.692H135.99C135.312 38.3344 133.896 37.4003 132.26 37.4003ZM150.415 30.3331L145.677 30.3455L145.696 37.4113L150.434 37.3989C152.409 37.3937 154.006 35.8075 154.001 33.8564C153.996 31.9267 152.425 30.3625 150.48 30.3334L150.415 30.3331ZM61.5663 25.7181V34.1749H63.6568V26.3555L61.5663 25.7181Z" fill="white"/>
</g>
<defs>
<clipPath id="clip0_4560_63176">
<rect width="148" height="44.1613" fill="white" transform="translate(31.45 16)"/>
</clipPath>
</defs>
</svg>
