<svg width="48" height="48" viewBox="0 0 48 48" fill="none" xmlns="http://www.w3.org/2000/svg">
<path fill-rule="evenodd" clip-rule="evenodd" d="M44 40H4V8H44V40ZM8 14H22V26H8V14ZM26 14H34V18H26V14Z" fill="url(#ocbs99_select99_linear)"/>
<path d="M15 24C17.2091 24 19 22.2091 19 20C19 17.7909 17.2091 16 15 16C12.7909 16 11 17.7909 11 20C11 22.2091 12.7909 24 15 24Z" fill="#76808F"/>
<path d="M22 34V26H8V34H22Z" fill="#76808F"/>
<path d="M26 22H40V26H26V22Z" fill="#76808F"/>
<path d="M40 30H26V34H40V30Z" fill="#76808F"/>
<defs>
<linearGradient id="ocbs99_select99_linear" x1="24" y1="40" x2="24" y2="8" gradientUnits="userSpaceOnUse">
<stop stop-color="#F0B90B"/>
<stop offset="1" stop-color="#F8D33A"/>
</linearGradient>
</defs>
</svg>
