<svg width="436" height="435" viewBox="0 0 436 435" fill="none" xmlns="http://www.w3.org/2000/svg">
<g clip-path="url(#clip0_4761_162372)">
<path opacity="0.15" d="M211.587 125L211.587 -21L103.587 -21L103.587 110L161.587 157.5L198.587 121.5L211.587 125Z" fill="url(#paint0_linear_4761_162372)"/>
<path opacity="0.15" d="M435.587 292L435.587 84L261.087 84L261.087 332.5L435.587 292Z" fill="url(#paint1_linear_4761_162372)"/>
<path opacity="0.1" d="M311.587 210L311.587 0L235.587 -3.32207e-06L235.587 210L311.587 210Z" fill="url(#paint2_linear_4761_162372)"/>
<path d="M107.862 413.875L107.862 393.478L87.4648 393.478L87.4648 413.875L107.862 413.875Z" fill="#CB8C54"/>
<path d="M66.34 335.201L66.3399 355.598L87.4652 376.723L87.465 335.201L66.34 335.201Z" fill="#5E6673"/>
<path d="M66.3397 355.598L45.9429 355.598L45.9429 335.201L66.3397 335.201L66.3397 355.598Z" fill="#CB8C54"/>
<path d="M99.849 292.222H56.8699V311.162H99.849V292.222Z" fill="#5E6673"/>
<path fill-rule="evenodd" clip-rule="evenodd" d="M46.9545 335.213L58.6522 335.213L58.6522 362.895L34.6648 362.895C14.5385 362.895 4.45916 338.561 18.6906 324.33L55.1692 287.851L95.1137 287.851L95.1137 315.533L66.6352 315.533L46.9545 335.213Z" fill="#F8D33A"/>
<path d="M65.8131 188.357H106.283L115.194 219.833H58.7821L65.8131 188.357Z" fill="#B64A02"/>
<path d="M62.8051 194.743C62.8051 182.457 72.7646 172.498 85.0504 172.498C97.3362 172.498 107.296 182.457 107.296 194.743L62.8051 194.743Z" fill="#B64A02"/>
<path d="M104.483 194.87C104.483 205.45 95.9056 214.027 85.3251 214.027C74.7446 214.027 66.1674 205.45 66.1674 194.87L104.483 194.87Z" fill="#E8A37D"/>
<path d="M74.5596 194.734L63.6867 188.357L54.7753 219.833H79.3832L74.5596 194.734Z" fill="#B64A02"/>
<path fill-rule="evenodd" clip-rule="evenodd" d="M115.253 227.484L135.293 247.525L176.487 247.525V271.08L135.293 271.08C129.046 271.08 123.054 268.598 118.637 264.181L98.5967 244.14L115.253 227.484Z" fill="#5E6673"/>
<path d="M87.4652 413.875L107.862 413.875L128.987 435L87.4652 435L87.4652 413.875Z" fill="#5E6673"/>
<path fill-rule="evenodd" clip-rule="evenodd" d="M115.146 292.222H87.4649V400.762H115.146V292.222Z" fill="#F8D33A"/>
<path fill-rule="evenodd" clip-rule="evenodd" d="M67.0066 251.13L27.4163 251.13C14.4072 251.13 3.86116 240.584 3.86116 227.575L3.86115 194.859L27.4163 194.859L27.4163 227.575L67.0066 227.575L67.0066 251.13Z" fill="#5E6673"/>
<path fill-rule="evenodd" clip-rule="evenodd" d="M67.2156 227.578L78.246 238.609L89.2764 227.578H115.147V292.415H50.3099V227.578H67.2156Z" fill="#5E6673"/>
<path d="M15.8778 156L30.4654 170.588L15.8778 185.175L1.29026 170.588L15.8778 156Z" fill="#E8A37D"/>
<path d="M199 245.387L213.587 259.975L199 274.562L184.412 259.975L199 245.387Z" fill="#E8A37D"/>
<rect x="435.587" y="292.254" width="152" height="95.1111" transform="rotate(135 435.587 292.254)" fill="url(#paint3_linear_4761_162372)"/>
<rect x="395.989" y="252.656" width="152" height="21.7778" transform="rotate(135 395.989 252.656)" fill="#5E6673"/>
<rect x="336.592" y="349.765" width="32.4444" height="17.7778" transform="rotate(135 336.592 349.765)" fill="white"/>
<rect x="408.56" y="277.797" width="92.8889" height="17.7778" transform="rotate(135 408.56 277.797)" fill="#F8D33A"/>
<rect x="423.016" y="292.254" width="49.3333" height="11.5556" transform="rotate(135 423.016 292.254)" fill="#F8D33A"/>
<path d="M283.423 173.295C303.694 178.727 315.724 199.563 310.293 219.835C304.861 240.107 284.024 252.137 263.752 246.705C243.481 241.273 231.45 220.437 236.882 200.165C242.314 179.893 263.151 167.863 283.423 173.295Z" fill="#F8D33A"/>
<g style="mix-blend-mode:soft-light">
<path d="M281.013 182.278C296.321 186.38 305.405 202.115 301.304 217.423C297.202 232.731 281.467 241.815 266.159 237.713C250.851 233.612 241.767 217.877 245.868 202.569C249.97 187.261 265.705 178.176 281.013 182.278Z" fill="url(#paint4_linear_4761_162372)"/>
</g>
<path d="M269.573 224.979L258.605 205.982L277.602 195.014L288.57 214.011L269.573 224.979Z" fill="#F0B90B"/>
<path d="M204.373 70.2131L149.601 63.3668L142.754 70.2131L204.373 131.832L211.219 124.985L204.373 70.2131Z" fill="url(#paint5_linear_4761_162372)"/>
<path d="M171.852 164.354L175.276 160.93L113.657 99.3116L110.234 102.735L171.852 164.354Z" fill="#76808F"/>
<circle r="12.1031" transform="matrix(-0.707107 -0.707107 -0.707107 0.707107 186.401 88.1863)" fill="white"/>
<rect width="9.68246" height="41.1504" transform="matrix(-0.707107 -0.707107 -0.707107 0.707107 197.527 124.986)" fill="#76808F"/>
<rect width="9.68246" height="41.1504" transform="matrix(-0.707107 -0.707107 -0.707107 0.707107 183.834 111.293)" fill="#76808F"/>
<rect width="9.68246" height="41.1504" transform="matrix(-0.707107 -0.707107 -0.707107 0.707107 170.141 97.5996)" fill="#76808F"/>
<rect width="9.68246" height="41.1504" transform="matrix(-0.707107 -0.707107 -0.707107 0.707107 156.448 83.907)" fill="#76808F"/>
<path d="M182.122 92.4654L190.68 92.4654V83.9072L182.122 83.9072V92.4654Z" fill="#76808E"/>
<path d="M171.852 164.354L165.006 171.2L103.387 109.582L110.233 102.735L171.852 164.354Z" fill="url(#paint6_linear_4761_162372)"/>
<path opacity="0.2" d="M202.125 176L194.625 183.5L202.125 191L209.625 183.5L202.125 176Z" fill="#76808F"/>
<path opacity="0.2" d="M86.125 17L81.625 21.5L86.125 26L90.625 21.5L86.125 17Z" fill="#76808F"/>
<path opacity="0.2" d="M400.125 104L395.625 108.5L400.125 113L404.625 108.5L400.125 104Z" fill="#76808F"/>
<path d="M338.587 195L328.587 205L338.587 215L348.587 205L338.587 195Z" fill="white"/>
<rect opacity="0.25" x="12.625" y="433" width="62" height="2" fill="#76808F"/>
<rect opacity="0.25" x="303.625" y="433" width="49" height="2" fill="#76808F"/>
</g>
<defs>
<linearGradient id="paint0_linear_4761_162372" x1="211.587" y1="124.706" x2="211.587" y2="-21" gradientUnits="userSpaceOnUse">
<stop offset="0.00136711" stop-color="#5E6673"/>
<stop offset="1" stop-color="#5E6673" stop-opacity="0"/>
</linearGradient>
<linearGradient id="paint1_linear_4761_162372" x1="435.587" y1="332" x2="435.587" y2="84" gradientUnits="userSpaceOnUse">
<stop offset="0.00136711" stop-color="#5E6673"/>
<stop offset="1" stop-color="#5E6673" stop-opacity="0"/>
</linearGradient>
<linearGradient id="paint2_linear_4761_162372" x1="311.587" y1="210" x2="311.587" y2="0" gradientUnits="userSpaceOnUse">
<stop offset="0.00136711" stop-color="#5E6673"/>
<stop offset="1" stop-color="#5E6673" stop-opacity="0"/>
</linearGradient>
<linearGradient id="paint3_linear_4761_162372" x1="511.587" y1="292.254" x2="511.587" y2="387.365" gradientUnits="userSpaceOnUse">
<stop stop-color="#F0B90B"/>
<stop offset="1" stop-color="#F8D33A"/>
</linearGradient>
<linearGradient id="paint4_linear_4761_162372" x1="245.868" y1="202.569" x2="301.304" y2="217.423" gradientUnits="userSpaceOnUse">
<stop/>
<stop offset="1" stop-opacity="0"/>
</linearGradient>
<linearGradient id="paint5_linear_4761_162372" x1="219.777" y1="116.427" x2="158.159" y2="54.8084" gradientUnits="userSpaceOnUse">
<stop stop-color="#F0B90B"/>
<stop offset="1" stop-color="#F8D33A"/>
</linearGradient>
<linearGradient id="paint6_linear_4761_162372" x1="168.429" y1="167.777" x2="106.81" y2="106.158" gradientUnits="userSpaceOnUse">
<stop stop-color="#F0B90B"/>
<stop offset="1" stop-color="#F8D33A"/>
</linearGradient>
<clipPath id="clip0_4761_162372">
<rect width="435" height="435" fill="white" transform="translate(0.625)"/>
</clipPath>
</defs>
</svg>
