<svg width="211" height="76" viewBox="0 0 211 76" fill="none" xmlns="http://www.w3.org/2000/svg">
<path d="M58.7514 46.2336C58.5885 46.2336 58.4501 46.1761 58.3361 46.0611C58.2221 45.9461 58.1651 45.8065 58.1651 45.6422V30.7841H53.6452C53.4823 30.7841 53.3439 30.7266 53.2299 30.6116C53.1158 30.4966 53.0588 30.357 53.0588 30.1927V28.3693C53.0588 28.1886 53.1077 28.0408 53.2054 27.9258C53.3194 27.8108 53.466 27.7533 53.6452 27.7533H66.1053C66.2845 27.7533 66.4311 27.8108 66.5451 27.9258C66.6591 28.0408 66.7161 28.1886 66.7161 28.3693V30.1927C66.7161 30.357 66.6591 30.4966 66.5451 30.6116C66.4311 30.7266 66.2845 30.7841 66.1053 30.7841H61.6099V45.6422C61.6099 45.8065 61.5529 45.9461 61.4389 46.0611C61.3249 46.1761 61.1783 46.2336 60.9991 46.2336H58.7514Z" fill="white"/>
<path d="M67.5978 46.2336C67.4349 46.2336 67.2965 46.1761 67.1824 46.0611C67.0684 45.9461 67.0114 45.8065 67.0114 45.6422V34.0366C67.0114 33.8723 67.0684 33.7327 67.1824 33.6177C67.2965 33.4863 67.4349 33.4206 67.5978 33.4206H69.5767C69.7559 33.4206 69.9025 33.4781 70.0165 33.5931C70.1305 33.7081 70.1875 33.8559 70.1875 34.0366V35.0469C70.5784 34.5212 71.0671 34.1187 71.6534 33.8395C72.2561 33.5602 72.9402 33.4206 73.7057 33.4206H74.7074C74.8866 33.4206 75.025 33.4781 75.1227 33.5931C75.2367 33.6916 75.2937 33.8313 75.2937 34.012V35.7861C75.2937 35.9504 75.2367 36.09 75.1227 36.205C75.025 36.32 74.8866 36.3775 74.7074 36.3775H72.8017C72.0362 36.3775 71.4335 36.5992 70.9938 37.0427C70.554 37.4863 70.3341 38.0941 70.3341 38.8661V45.6422C70.3341 45.8065 70.2771 45.9461 70.1631 46.0611C70.0491 46.1761 69.9025 46.2336 69.7233 46.2336H67.5978Z" fill="white"/>
<path d="M80.4532 46.48C79.6225 46.48 78.857 46.3158 78.1566 45.9872C77.4726 45.6422 76.9269 45.1823 76.5197 44.6074C76.1288 44.0324 75.9334 43.4 75.9334 42.71C75.9334 41.593 76.3813 40.6895 77.2771 39.9996C78.1729 39.3097 79.4027 38.8415 80.9663 38.5951L84.3134 38.1023V37.5848C84.3134 36.862 84.1343 36.32 83.7759 35.9586C83.4176 35.5972 82.8394 35.4165 82.0413 35.4165C81.5038 35.4165 81.064 35.5233 80.722 35.7368C80.3962 35.9339 80.1356 36.1311 79.9402 36.3282C79.7447 36.5417 79.6144 36.6814 79.5492 36.7471C79.4841 36.9442 79.3619 37.0427 79.1828 37.0427H77.3015C77.1549 37.0427 77.0246 36.9935 76.9106 36.8949C76.8129 36.7963 76.764 36.6649 76.764 36.5007C76.7803 36.09 76.9758 35.6218 77.3504 35.0962C77.7413 34.5705 78.3358 34.1188 79.1339 33.7409C79.932 33.3631 80.9093 33.1742 82.0657 33.1742C83.9877 33.1742 85.3884 33.6095 86.268 34.4801C87.1475 35.3508 87.5873 36.4924 87.5873 37.9052V45.6422C87.5873 45.8065 87.5303 45.9461 87.4162 46.0611C87.3185 46.1761 87.1801 46.2336 87.0009 46.2336H85.0219C84.8591 46.2336 84.7206 46.1761 84.6066 46.0611C84.4926 45.9461 84.4356 45.8065 84.4356 45.6422V44.6813C84.0772 45.2069 83.5642 45.6422 82.8964 45.9872C82.2449 46.3158 81.4305 46.48 80.4532 46.48ZM81.2839 44.1392C82.1797 44.1392 82.9127 43.8435 83.4827 43.2521C84.0528 42.6608 84.3379 41.7983 84.3379 40.6649V40.1474L81.8947 40.5417C80.95 40.6895 80.2333 40.9277 79.7447 41.2563C79.2724 41.5848 79.0362 41.9873 79.0362 42.4636C79.0362 42.9893 79.2561 43.4 79.6958 43.6957C80.1356 43.9913 80.665 44.1392 81.2839 44.1392Z" fill="white"/>
<path d="M95.1926 46.48C93.5475 46.48 92.2852 45.9461 91.4057 44.8784C90.5261 43.8106 90.0538 42.3897 89.9886 40.6156L89.9642 39.8025L89.9886 39.014C90.0375 37.2891 90.5017 35.8846 91.3812 34.8005C92.2771 33.7163 93.5475 33.1742 95.1926 33.1742C96.7725 33.1742 98.0266 33.7163 98.955 34.8005V29.3303C98.955 29.1496 99.0121 29.01 99.1261 28.9114C99.2401 28.7964 99.3785 28.7389 99.5414 28.7389H101.618C101.797 28.7389 101.936 28.7964 102.033 28.9114C102.147 29.01 102.204 29.1496 102.204 29.3303V45.6422C102.204 45.8065 102.147 45.9461 102.033 46.0611C101.936 46.1761 101.797 46.2336 101.618 46.2336H99.688C99.5251 46.2336 99.3867 46.1761 99.2727 46.0611C99.1586 45.9461 99.1016 45.8065 99.1016 45.6422V44.7306C98.1732 45.8969 96.8702 46.48 95.1926 46.48ZM96.0965 43.8435C97.0412 43.8435 97.7416 43.5396 98.1977 42.9318C98.6537 42.324 98.9062 41.5766 98.955 40.6895C98.9713 40.4924 98.9795 40.1721 98.9795 39.7286C98.9795 39.3015 98.9713 38.9893 98.955 38.7922C98.9225 37.9709 98.6619 37.2727 98.1732 36.6978C97.7009 36.1064 97.0087 35.8107 96.0965 35.8107C94.3375 35.8107 93.4009 36.9031 93.2869 39.0879L93.2625 39.8271L93.2869 40.5663C93.4009 42.7511 94.3375 43.8435 96.0965 43.8435Z" fill="white"/>
<path d="M110.689 46.48C108.881 46.48 107.44 45.9544 106.365 44.903C105.306 43.8353 104.744 42.3404 104.679 40.4185L104.654 39.8025L104.679 39.1865C104.76 37.3138 105.33 35.8436 106.389 34.7758C107.464 33.7081 108.897 33.1742 110.689 33.1742C112.611 33.1742 114.093 33.7656 115.136 34.9483C116.194 36.1311 116.724 37.708 116.724 39.6793V40.1967C116.724 40.361 116.667 40.5006 116.553 40.6156C116.439 40.7306 116.292 40.7881 116.113 40.7881H108.002V40.9852C108.034 41.8887 108.279 42.6525 108.735 43.2768C109.207 43.8846 109.85 44.1885 110.665 44.1885C111.626 44.1885 112.399 43.8106 112.986 43.055C113.132 42.8743 113.246 42.7593 113.328 42.71C113.425 42.6608 113.564 42.6361 113.743 42.6361H115.844C115.991 42.6361 116.113 42.6854 116.211 42.784C116.325 42.8661 116.382 42.9729 116.382 43.1043C116.382 43.4985 116.146 43.9667 115.673 44.5088C115.217 45.0345 114.557 45.4944 113.694 45.8887C112.831 46.2829 111.829 46.48 110.689 46.48ZM113.401 38.7183V38.6444C113.401 37.6752 113.157 36.8949 112.668 36.3035C112.196 35.7122 111.536 35.4165 110.689 35.4165C109.842 35.4165 109.182 35.7122 108.71 36.3035C108.238 36.8949 108.002 37.6752 108.002 38.6444V38.7183H113.401Z" fill="white"/>
<path d="M119.659 46.2336C119.496 46.2336 119.358 46.1761 119.244 46.0611C119.13 45.9461 119.073 45.8065 119.073 45.6422V34.0366C119.073 33.8723 119.13 33.7327 119.244 33.6177C119.358 33.4863 119.496 33.4206 119.659 33.4206H121.638C121.817 33.4206 121.964 33.4781 122.078 33.5931C122.192 33.7081 122.249 33.8559 122.249 34.0366V35.0469C122.64 34.5212 123.128 34.1187 123.715 33.8395C124.317 33.5602 125.002 33.4206 125.767 33.4206H126.769C126.948 33.4206 127.086 33.4781 127.184 33.5931C127.298 33.6916 127.355 33.8313 127.355 34.012V35.7861C127.355 35.9504 127.298 36.09 127.184 36.205C127.086 36.32 126.948 36.3775 126.769 36.3775H124.863C124.098 36.3775 123.495 36.5992 123.055 37.0427C122.615 37.4863 122.396 38.0941 122.396 38.8661V45.6422C122.396 45.8065 122.339 45.9461 122.224 46.0611C122.11 46.1761 121.964 46.2336 121.785 46.2336H119.659Z" fill="white"/>
<path d="M132.852 46.2336C132.608 46.2336 132.412 46.1679 132.266 46.0365C132.119 45.9051 132.03 45.7244 131.997 45.4944L128.674 28.4138L128.65 28.2167C128.65 28.0688 128.699 27.9456 128.796 27.8471C128.91 27.7485 129.033 27.6992 129.163 27.6992H131.313C131.72 27.6992 131.948 27.8635 131.997 28.192L134.44 40.6402L136.639 33.4206C136.802 33.0099 137.071 32.8046 137.445 32.8046H138.765C139.172 32.8046 139.432 33.0099 139.546 33.4206L141.77 40.6156L143.993 28.2167C144.025 28.036 144.091 27.9128 144.188 27.8471C144.302 27.7649 144.465 27.7239 144.677 27.7239H146.827C146.957 27.7239 147.071 27.7731 147.169 27.8717C147.267 27.9703 147.316 28.0935 147.316 28.2413C147.316 28.3234 147.316 28.2796 147.291 28.4384L144.188 45.4944C144.107 45.9872 143.822 46.2336 143.333 46.2336H141.696C141.468 46.2336 141.281 46.1761 141.134 46.0611C140.988 45.9461 140.89 45.7983 140.841 45.6176L138.105 37.3877L135.369 45.6176C135.206 46.0283 134.912 46.2336 134.489 46.2336H132.852Z" fill="white"/>
<path d="M152.615 46.48C151.785 46.48 151.019 46.3158 150.319 45.9872C149.635 45.6422 149.089 45.1823 148.682 44.6074C148.291 44.0324 148.096 43.4 148.096 42.71C148.096 41.593 148.543 40.6895 149.439 39.9996C150.335 39.3097 151.565 38.8415 153.128 38.5951L156.476 38.1023V37.5848C156.476 36.862 156.296 36.32 155.938 35.9586C155.58 35.5972 155.002 35.4165 154.203 35.4165C153.666 35.4165 153.226 35.5233 152.884 35.7368C152.558 35.9339 152.298 36.1311 152.102 36.3282C151.907 36.5417 151.777 36.6814 151.711 36.7471C151.646 36.9442 151.524 37.0427 151.345 37.0427H149.464C149.317 37.0427 149.187 36.9935 149.073 36.8949C148.975 36.7963 148.926 36.6649 148.926 36.5007C148.942 36.09 149.138 35.6218 149.513 35.0962C149.903 34.5705 150.498 34.1188 151.296 33.7409C152.094 33.3631 153.071 33.1742 154.228 33.1742C156.15 33.1742 157.551 33.6095 158.43 34.4801C159.31 35.3508 159.749 36.4924 159.749 37.9052V45.6422C159.749 45.8065 159.692 45.9461 159.578 46.0611C159.481 46.1761 159.342 46.2336 159.163 46.2336H157.184C157.021 46.2336 156.883 46.1761 156.769 46.0611C156.655 45.9461 156.598 45.8065 156.598 45.6422V44.6813C156.239 45.2069 155.726 45.6422 155.059 45.9872C154.407 46.3158 153.593 46.48 152.615 46.48ZM153.446 44.1392C154.342 44.1392 155.075 43.8435 155.645 43.2521C156.215 42.6608 156.5 41.7983 156.5 40.6649V40.1474L154.057 40.5417C153.112 40.6895 152.395 40.9277 151.907 41.2563C151.435 41.5848 151.198 41.9873 151.198 42.4636C151.198 42.9893 151.418 43.4 151.858 43.6957C152.298 43.9913 152.827 44.1392 153.446 44.1392Z" fill="white"/>
<path d="M168.381 51.6545C166.931 51.6545 165.759 51.4081 164.863 50.9153C163.967 50.4389 163.332 49.8886 162.957 49.2644C162.582 48.6402 162.395 48.1063 162.395 47.6628C162.395 47.5149 162.452 47.3835 162.566 47.2685C162.696 47.1535 162.835 47.096 162.981 47.096H165.107C165.254 47.096 165.376 47.1289 165.473 47.1946C165.588 47.2767 165.677 47.4164 165.742 47.6135C165.905 48.057 166.166 48.4266 166.524 48.7223C166.899 49.0344 167.477 49.1905 168.259 49.1905C169.236 49.1905 169.953 48.9687 170.409 48.5252C170.881 48.0817 171.117 47.3178 171.117 46.2336V44.5581C170.221 45.6258 168.967 46.1597 167.355 46.1597C165.661 46.1597 164.382 45.634 163.519 44.5827C162.672 43.5314 162.216 42.1187 162.151 40.3446L162.126 39.6793L162.151 39.014C162.216 37.2727 162.68 35.8682 163.543 34.8005C164.407 33.7163 165.677 33.1742 167.355 33.1742C168.218 33.1742 168.975 33.3385 169.627 33.667C170.278 33.9955 170.824 34.4473 171.264 35.0222V34.0366C171.264 33.8559 171.321 33.7081 171.435 33.5931C171.549 33.4781 171.687 33.4206 171.85 33.4206H173.829C173.992 33.4206 174.13 33.4863 174.244 33.6177C174.358 33.7327 174.415 33.8723 174.415 34.0366L174.44 45.9133C174.44 47.7367 173.935 49.1494 172.925 50.1514C171.915 51.1535 170.401 51.6545 168.381 51.6545ZM168.259 43.5478C169.187 43.5478 169.879 43.2521 170.335 42.6608C170.808 42.0694 171.068 41.3466 171.117 40.4924C171.133 40.361 171.142 40.0899 171.142 39.6793C171.142 39.285 171.133 39.0222 171.117 38.8908C171.068 38.0202 170.808 37.2892 170.335 36.6978C169.879 36.1064 169.187 35.8107 168.259 35.8107C166.5 35.8107 165.571 36.9031 165.473 39.0879L165.449 39.6793C165.449 40.8456 165.653 41.7819 166.06 42.4883C166.483 43.1946 167.216 43.5478 168.259 43.5478Z" fill="white"/>
<path d="M183.069 46.48C181.164 46.48 179.69 45.9872 178.647 45.0016C177.605 43.9996 177.043 42.6361 176.962 40.9113L176.937 39.8271L176.962 38.7429C177.043 37.0345 177.613 35.6793 178.672 34.6773C179.73 33.6752 181.196 33.1742 183.069 33.1742C184.943 33.1742 186.408 33.6752 187.467 34.6773C188.526 35.6793 189.096 37.0345 189.177 38.7429C189.194 38.9401 189.202 39.3015 189.202 39.8271C189.202 40.3528 189.194 40.7142 189.177 40.9113C189.096 42.6361 188.534 43.9996 187.492 45.0016C186.449 45.9872 184.975 46.48 183.069 46.48ZM183.069 44.0406C183.933 44.0406 184.6 43.7696 185.073 43.2275C185.545 42.669 185.806 41.8558 185.855 40.7881C185.871 40.6238 185.879 40.3035 185.879 39.8271C185.879 39.3507 185.871 39.0304 185.855 38.8661C185.806 37.7984 185.545 36.9935 185.073 36.4514C184.6 35.8929 183.933 35.6136 183.069 35.6136C182.206 35.6136 181.538 35.8929 181.066 36.4514C180.594 36.9935 180.333 37.7984 180.284 38.8661L180.26 39.8271L180.284 40.7881C180.333 41.8558 180.594 42.669 181.066 43.2275C181.538 43.7696 182.206 44.0406 183.069 44.0406Z" fill="white"/>
<path d="M192.251 46.2336C192.088 46.2336 191.949 46.1761 191.835 46.0611C191.721 45.9461 191.664 45.8065 191.664 45.6422V34.012C191.664 33.8477 191.721 33.7081 191.835 33.5931C191.949 33.4781 192.088 33.4206 192.251 33.4206H194.254C194.417 33.4206 194.556 33.4781 194.67 33.5931C194.784 33.7081 194.841 33.8477 194.841 34.012V35.0222C195.802 33.7902 197.162 33.1742 198.921 33.1742C200.419 33.1742 201.608 33.6752 202.488 34.6773C203.367 35.6629 203.807 37.0099 203.807 38.7183V45.6422C203.807 45.8065 203.75 45.9461 203.636 46.0611C203.538 46.1761 203.4 46.2336 203.221 46.2336H201.071C200.908 46.2336 200.769 46.1761 200.655 46.0611C200.541 45.9461 200.484 45.8065 200.484 45.6422V38.8661C200.484 37.8969 200.248 37.1495 199.776 36.6239C199.32 36.0818 198.652 35.8107 197.772 35.8107C196.909 35.8107 196.225 36.0818 195.72 36.6239C195.231 37.1659 194.987 37.9134 194.987 38.8661V45.6422C194.987 45.8065 194.93 45.9461 194.816 46.0611C194.718 46.1761 194.58 46.2336 194.401 46.2336H192.251Z" fill="white"/>
<path fill-rule="evenodd" clip-rule="evenodd" d="M34.203 42.9538L28.7198 39.7905C28.3356 39.5689 28.4922 38.9793 28.9352 38.9794L42.8611 38.9809C43.5686 38.981 44.1355 39.5785 44.0496 40.2839C43.0193 48.7502 36.3292 55.4703 27.8999 56.5065C27.1975 56.5929 26.6025 56.0233 26.6025 55.3125V49.0151C26.6025 48.3762 27.0879 47.8502 27.7098 47.7164C30.4847 47.1193 32.8279 45.3511 34.203 42.9538ZM24.6528 55.3127C24.6528 56.0234 24.0579 56.593 23.3556 56.5067C14.9274 55.472 8.23702 48.752 7.2059 40.2842C7.11999 39.5787 7.68695 38.981 8.39453 38.981H14.6643C15.3001 38.981 15.8238 39.4685 15.957 40.093C16.5503 42.8742 18.3029 45.2236 20.6819 46.6058L23.8445 41.1045C24.0658 40.7196 24.6515 40.8773 24.6515 41.3217L24.6528 55.3127ZM8.39704 37.02C7.68852 37.0214 7.12004 36.4234 7.20613 35.7169C8.23773 27.252 14.9273 20.5333 23.3555 19.4972C24.0579 19.4108 24.6529 19.9803 24.6529 20.6912V26.9888C24.6529 27.6276 24.1676 28.1536 23.5458 28.2874C20.7768 28.883 18.4376 30.6429 17.0613 33.033L22.4899 36.1816C22.8726 36.4036 22.7165 36.9914 22.2745 36.9923L8.39704 37.02ZM26.6027 20.6911C26.6026 19.9803 27.1975 19.4107 27.8999 19.4969C36.328 20.5317 43.0184 27.2517 44.0495 35.7195C44.1354 36.425 43.5685 37.0226 42.8609 37.0226H36.5911C35.9553 37.0226 35.4316 36.5352 35.2984 35.9107C34.7051 33.1291 32.9526 30.7783 30.5735 29.396L27.4121 34.897C27.1909 35.2819 26.6051 35.1243 26.605 34.6799L26.6027 20.6911Z" fill="url(#paint0_linear_4560_63878)"/>
<g style="mix-blend-mode:darken" filter="url(#filter0_i_4560_63878)">
<path d="M43.2291 39.0361C39.7414 44.1008 34.0195 47.4945 27.4946 47.7793C27.564 47.7528 27.6359 47.7314 27.7097 47.7155C30.4846 47.1185 32.8278 45.3502 34.2029 42.953L28.7197 39.7897C28.3356 39.568 28.4921 38.9785 28.9352 38.9785L42.8611 38.98C42.9894 38.9801 43.1131 38.9997 43.2291 39.0361Z" fill="url(#paint1_linear_4560_63878)"/>
</g>
<g style="mix-blend-mode:darken" opacity="0.6" filter="url(#filter1_i_4560_63878)">
<path d="M15.8904 39.8672C15.9182 39.9394 15.9406 40.0144 15.957 40.0914C16.5502 42.8726 18.3028 45.222 20.6819 46.6043L23.8445 41.1029C24.0658 40.7181 24.6515 40.8757 24.6515 41.3201L24.6527 55.3111C24.6528 55.7063 24.4689 56.0578 24.1848 56.2772C19.3349 52.4019 16.1518 46.5117 15.8904 39.8672Z" fill="url(#paint2_linear_4560_63878)"/>
</g>
<g style="mix-blend-mode:darken" filter="url(#filter2_i_4560_63878)">
<path d="M26.9709 19.8105C31.8704 23.6199 35.099 29.4933 35.3646 36.1331C35.337 36.0612 35.3148 35.9865 35.2984 35.9098C34.7052 33.1283 32.9526 30.7774 30.5735 29.3951L27.4121 34.8962C27.1909 35.2811 26.6052 35.1235 26.6051 34.679L26.6028 20.6903C26.6027 20.3435 26.7443 20.0304 26.9709 19.8105Z" fill="url(#paint3_linear_4560_63878)"/>
</g>
<g style="mix-blend-mode:darken" opacity="0.6" filter="url(#filter3_i_4560_63878)">
<path d="M7.43359 36.551C7.65253 36.8363 8.00307 37.0207 8.39687 37.0199L22.2743 36.9922C22.7163 36.9913 22.8725 36.4036 22.4897 36.1816L17.0612 33.033C18.4374 30.6429 20.7766 28.8829 23.5457 28.2873C23.6221 28.2708 23.6964 28.2485 23.7681 28.2207C17.1543 28.4835 11.2914 31.6803 7.43359 36.551Z" fill="url(#paint4_linear_4560_63878)"/>
</g>
<defs>
<filter id="filter0_i_4560_63878" x="27.4946" y="38.9785" width="15.7344" height="11.8008" filterUnits="userSpaceOnUse" color-interpolation-filters="sRGB">
<feFlood flood-opacity="0" result="BackgroundImageFix"/>
<feBlend mode="normal" in="SourceGraphic" in2="BackgroundImageFix" result="shape"/>
<feColorMatrix in="SourceAlpha" type="matrix" values="0 0 0 0 0 0 0 0 0 0 0 0 0 0 0 0 0 0 127 0" result="hardAlpha"/>
<feOffset dy="3"/>
<feGaussianBlur stdDeviation="6"/>
<feComposite in2="hardAlpha" operator="arithmetic" k2="-1" k3="1"/>
<feColorMatrix type="matrix" values="0 0 0 0 0.340545 0 0 0 0 0.375502 0 0 0 0 0.44336 0 0 0 0.08 0"/>
<feBlend mode="normal" in2="shape" result="effect1_innerShadow_4560_63878"/>
</filter>
<filter id="filter1_i_4560_63878" x="15.8904" y="39.8672" width="8.76245" height="19.4102" filterUnits="userSpaceOnUse" color-interpolation-filters="sRGB">
<feFlood flood-opacity="0" result="BackgroundImageFix"/>
<feBlend mode="normal" in="SourceGraphic" in2="BackgroundImageFix" result="shape"/>
<feColorMatrix in="SourceAlpha" type="matrix" values="0 0 0 0 0 0 0 0 0 0 0 0 0 0 0 0 0 0 127 0" result="hardAlpha"/>
<feOffset dy="3"/>
<feGaussianBlur stdDeviation="6"/>
<feComposite in2="hardAlpha" operator="arithmetic" k2="-1" k3="1"/>
<feColorMatrix type="matrix" values="0 0 0 0 0.340545 0 0 0 0 0.375502 0 0 0 0 0.44336 0 0 0 0.08 0"/>
<feBlend mode="normal" in2="shape" result="effect1_innerShadow_4560_63878"/>
</filter>
<filter id="filter2_i_4560_63878" x="26.6028" y="19.8105" width="8.76196" height="19.3223" filterUnits="userSpaceOnUse" color-interpolation-filters="sRGB">
<feFlood flood-opacity="0" result="BackgroundImageFix"/>
<feBlend mode="normal" in="SourceGraphic" in2="BackgroundImageFix" result="shape"/>
<feColorMatrix in="SourceAlpha" type="matrix" values="0 0 0 0 0 0 0 0 0 0 0 0 0 0 0 0 0 0 127 0" result="hardAlpha"/>
<feOffset dy="3"/>
<feGaussianBlur stdDeviation="6"/>
<feComposite in2="hardAlpha" operator="arithmetic" k2="-1" k3="1"/>
<feColorMatrix type="matrix" values="0 0 0 0 0.340545 0 0 0 0 0.375502 0 0 0 0 0.44336 0 0 0 0.08 0"/>
<feBlend mode="normal" in2="shape" result="effect1_innerShadow_4560_63878"/>
</filter>
<filter id="filter3_i_4560_63878" x="7.43359" y="28.2207" width="16.3345" height="11.7988" filterUnits="userSpaceOnUse" color-interpolation-filters="sRGB">
<feFlood flood-opacity="0" result="BackgroundImageFix"/>
<feBlend mode="normal" in="SourceGraphic" in2="BackgroundImageFix" result="shape"/>
<feColorMatrix in="SourceAlpha" type="matrix" values="0 0 0 0 0 0 0 0 0 0 0 0 0 0 0 0 0 0 127 0" result="hardAlpha"/>
<feOffset dy="3"/>
<feGaussianBlur stdDeviation="6"/>
<feComposite in2="hardAlpha" operator="arithmetic" k2="-1" k3="1"/>
<feColorMatrix type="matrix" values="0 0 0 0 0.340545 0 0 0 0 0.375502 0 0 0 0 0.44336 0 0 0 0.08 0"/>
<feBlend mode="normal" in2="shape" result="effect1_innerShadow_4560_63878"/>
</filter>
<linearGradient id="paint0_linear_4560_63878" x1="7.19727" y1="38.0018" x2="44.0582" y2="37.9508" gradientUnits="userSpaceOnUse">
<stop stop-color="#03DCB5"/>
<stop offset="1" stop-color="#3B63F1"/>
</linearGradient>
<linearGradient id="paint1_linear_4560_63878" x1="34.3252" y1="35.3866" x2="7.92616" y2="20.3784" gradientUnits="userSpaceOnUse">
<stop stop-color="#2A5392" stop-opacity="0.29"/>
<stop offset="1" stop-color="#5194C5" stop-opacity="0.32"/>
</linearGradient>
<linearGradient id="paint2_linear_4560_63878" x1="16.3437" y1="39.047" x2="28.1877" y2="57.2386" gradientUnits="userSpaceOnUse">
<stop stop-color="#2A5392" stop-opacity="0.29"/>
<stop offset="1" stop-color="#5194C5" stop-opacity="0.57"/>
</linearGradient>
<linearGradient id="paint3_linear_4560_63878" x1="13.7285" y1="15.2704" x2="-6.28572" y2="29.1893" gradientUnits="userSpaceOnUse">
<stop stop-color="#2A5392" stop-opacity="0.29"/>
<stop offset="1" stop-color="#5194C5" stop-opacity="0.32"/>
</linearGradient>
<linearGradient id="paint4_linear_4560_63878" x1="22.5678" y1="29.2841" x2="4.33005" y2="42.3473" gradientUnits="userSpaceOnUse">
<stop stop-color="#2A5392" stop-opacity="0.54"/>
<stop offset="1" stop-color="#5194C5" stop-opacity="0.32"/>
<stop offset="1" stop-color="#5194C5" stop-opacity="0.32"/>
</linearGradient>
</defs>
</svg>
