<svg width="1000" height="350" viewBox="0 0 1000 350" fill="none" xmlns="http://www.w3.org/2000/svg">
<rect width="1000" height="350" fill="#181A1F"/>
<path d="M349.833 139.322V155.283H368.391V165.925H349.833V198.023C349.833 200.814 350.19 202.733 350.993 203.867C351.796 205.175 353.67 205.698 356.525 205.698C359.558 205.698 362.681 205.088 366.071 203.779L369.908 213.723C363.216 216.95 356.435 218.607 349.387 218.607C342.338 218.607 337.699 217.124 335.201 214.246C332.703 211.281 331.543 207.094 331.543 201.512V165.925H325.743L324.227 158.249C325.565 156.592 328.42 155.022 332.703 153.364C333.684 146.387 336.182 141.764 340.019 139.322H349.833Z" fill="white"/>
<path d="M411.714 170.493C405.422 170.493 400.941 171.81 398.527 174.268V203.33C405.336 204.647 409.99 206.491 412.403 208.774L411.11 218.607H375.172L373.879 208.774C374.999 207.105 377.412 205.613 380.774 204.471V168.825C377.843 167.859 375.603 166.366 373.879 164.523L375.172 154.689C379.826 153.723 383.876 153.196 387.582 153.196C391.288 153.196 394.391 153.372 396.804 153.548V161.625C398.7 159.342 401.113 157.323 404.216 155.918C407.318 154.426 409.99 153.635 412.403 153.635C414.816 153.635 416.626 153.811 417.574 154.25L417.229 170.844C415.592 170.493 413.782 170.493 411.714 170.493Z" fill="white"/>
<path d="M426.621 165.617C426.621 164.312 426.621 163.007 426.797 161.528C434.736 157.266 443.292 155.179 452.554 155.179C461.816 155.179 468.256 157.005 472.137 160.398C476.106 163.79 478.047 169.531 478.047 177.446V204.324C481.046 204.933 483.339 205.628 485.104 206.411V217.458C480.781 219.372 474.518 220.589 466.315 220.589C465.521 218.502 464.639 215.718 464.198 212.587C460.581 217.98 453.789 220.589 444.263 220.589C438.529 220.589 433.677 218.937 429.62 215.718C425.474 212.5 423.533 207.89 423.533 202.41C423.533 196.756 425.474 192.32 429.267 189.102C433.06 185.883 438.705 184.231 446.291 184.231H460.317V178.229C460.317 171.705 456.7 168.313 449.555 168.313C446.909 168.313 444.792 168.661 442.939 169.096C442.763 172.662 442.322 175.446 441.44 177.359H428.914C427.414 173.967 426.621 170.227 426.621 165.617ZM449.732 207.629C454.054 207.629 457.494 206.324 460.14 203.889V193.451H451.231C445.145 193.451 441.969 195.712 441.969 200.409C441.969 202.497 442.587 204.324 443.91 205.628C445.233 206.933 447.262 207.629 449.732 207.629Z" fill="white"/>
<path d="M522.287 129.092C527.207 127.954 531.776 127.429 536.256 127.429C540.649 127.429 544.427 127.604 547.59 127.779V204.216C550.226 204.742 552.51 205.354 554.619 206.318V216.299C549.523 219.101 542.934 220.414 535.202 220.414C534.411 219.889 533.533 219.276 532.742 218.138C531.951 217 531.424 216.036 531.424 214.986C529.579 216.474 527.119 217.788 524.22 218.926C521.232 220.064 518.333 220.589 515.346 220.589C506.121 220.589 499.444 218.138 495.314 213.059C491.185 207.981 489.076 199.926 489.076 188.631C489.076 175.848 492.239 166.829 498.565 161.663C504.188 157.11 510.865 154.746 519.124 154.746C522.726 154.746 526.328 155.272 529.843 156.06V143.539C525.889 142.401 522.902 140.912 521.145 138.986L522.287 129.092ZM517.982 207.543C522.902 207.543 526.68 206.055 529.843 203.253V169.018C526.416 168.23 522.638 167.705 518.685 167.705C514.731 167.705 511.919 169.544 510.162 172.958C508.317 176.373 507.527 181.451 507.527 188.368C507.527 195.285 508.317 200.189 510.162 203.078C511.744 206.055 514.38 207.543 517.982 207.543Z" fill="white"/>
<path d="M591.474 220.589C581.234 220.589 573.466 217.802 568.346 212.489C563.226 207.176 560.578 199.337 560.578 188.886C560.578 182.702 561.373 177.302 563.226 172.772C565.08 168.243 567.552 164.759 570.465 162.321C576.379 157.617 583.529 155.179 591.385 155.179C599.33 155.179 605.421 157.095 609.746 161.188C614.072 165.282 616.19 172.424 616.19 182.876C616.19 188.886 613.189 192.021 607.098 192.021H579.204C579.557 197.421 581.057 201.166 583.353 203.257C585.824 205.347 589.62 206.479 594.916 206.479C597.918 206.479 600.566 206.131 603.302 205.521C605.95 204.912 607.892 204.215 609.04 203.605L610.894 202.647L614.689 212.751C614.16 213.36 613.365 214.057 612.394 215.015C611.423 215.799 608.952 217.105 604.979 218.586C601.007 219.98 596.417 220.589 591.474 220.589ZM599.507 180.698C599.683 179.566 599.86 178.085 599.86 176.431C599.86 174.776 599.242 173.034 597.918 171.031C596.594 169.114 594.122 168.069 590.856 168.069C587.413 168.069 584.941 169.027 583.088 171.205C581.234 173.121 580.086 176.605 579.469 181.482L599.507 180.698Z" fill="white"/>
<path d="M647.347 165.189C641.669 165.189 638.918 166.89 638.918 170.201C638.918 173.423 641.935 175.75 647.88 177.361L657.995 180.046C668.464 182.91 673.788 188.907 673.788 198.483C673.788 205.016 671.481 210.386 666.956 214.414C662.52 218.62 655.155 220.589 645.395 220.589C635.635 220.589 627.827 219.247 622.326 216.383C622.148 215.398 622.148 214.503 622.148 213.519C622.148 208.686 623.124 204.479 624.988 200.631H635.813C636.966 202.6 637.676 204.837 637.942 207.164C639.628 207.701 642.112 207.97 645.218 207.97C652.848 207.97 656.486 205.822 656.486 201.436C656.486 200.094 655.954 198.93 654.978 197.946C654.002 197.14 651.961 196.066 648.856 195.261L638.741 192.218C633.417 190.696 629.424 188.549 626.496 185.685C623.479 182.821 622.148 178.525 622.148 172.797C622.148 167.069 624.455 162.415 628.981 158.745C633.594 155.076 640.071 153.196 648.589 153.196C657.019 153.196 664.205 154.539 670.15 157.045C670.328 157.85 670.328 158.745 670.328 159.73C670.328 164.205 669.352 168.411 667.488 172.26H656.841C655.688 170.291 654.978 168.232 654.712 166.084C652.139 165.458 649.654 165.189 647.347 165.189Z" fill="white"/>
<path d="M682.833 165.617C682.833 164.312 682.833 163.007 683.01 161.528C690.949 157.266 699.505 155.179 708.767 155.179C718.029 155.179 724.468 157.005 728.35 160.398C732.319 163.79 734.26 169.531 734.26 177.446V204.324C737.259 204.933 739.552 205.628 741.317 206.411V217.458C736.994 219.372 730.731 220.589 722.528 220.589C721.734 218.502 720.852 215.718 720.411 212.587C716.794 217.98 710.002 220.589 700.475 220.589C694.742 220.589 689.89 218.937 685.833 215.718C681.687 212.5 679.746 207.89 679.746 202.41C679.746 196.756 681.687 192.32 685.48 189.102C689.273 185.883 694.918 184.231 702.504 184.231H716.53V178.229C716.53 171.705 712.913 168.313 705.768 168.313C703.122 168.313 701.005 168.661 699.152 169.096C698.976 172.662 698.535 175.446 697.653 177.359H685.127C683.716 173.967 682.833 170.227 682.833 165.617ZM706.121 207.629C710.443 207.629 713.883 206.324 716.53 203.889V193.451H707.62C701.534 193.451 698.358 195.712 698.358 200.409C698.358 202.497 698.976 204.324 700.299 205.628C701.534 206.933 703.475 207.629 706.121 207.629Z" fill="white"/>
<path d="M746.944 154.687C751.647 153.722 755.74 153.196 759.485 153.196C763.23 153.196 766.365 153.372 768.803 153.547V159.948C770.894 158.107 773.681 156.704 777.251 155.564C780.822 154.424 784.131 153.722 787.354 153.722C795.627 153.722 801.549 155.651 804.772 159.597C807.994 163.543 809.823 170.294 809.823 179.939V204.403C813.045 205.718 815.484 207.208 816.79 208.699L815.484 218.519H786.134L784.828 208.699C785.96 207.033 788.399 205.542 791.795 204.403V179.063C791.795 174.503 791.011 171.347 789.531 169.856C788.05 168.19 785.438 167.576 781.519 167.576C777.6 167.576 773.855 168.891 770.11 171.697V204.49C773.332 205.805 775.684 207.296 777.077 208.787L775.771 218.607H746.595L745.289 208.787C746.421 207.121 748.86 205.63 752.256 204.49V168.716C749.295 167.752 747.031 166.261 745.289 164.42L746.944 154.687Z" fill="white"/>
<path d="M844.382 139.322V155.283H862.94V165.925H844.382V198.023C844.382 200.814 844.739 202.733 845.542 203.867C846.345 205.175 848.218 205.698 851.073 205.698C854.107 205.698 857.23 205.088 860.62 203.779L864.457 213.723C857.765 216.95 850.984 218.607 843.936 218.607C836.887 218.607 832.248 217.124 829.75 214.246C827.251 211.281 826.092 207.094 826.092 201.512V165.925H820.292L818.775 158.249C820.114 156.592 822.969 155.022 827.251 153.364C828.233 146.387 830.731 141.764 834.568 139.322H844.382Z" fill="white"/>
<path d="M871.517 165.617C871.517 164.312 871.517 163.007 871.693 161.528C879.632 157.266 888.189 155.179 897.451 155.179C906.713 155.179 913.152 157.005 917.033 160.398C921.003 163.79 922.943 169.531 922.943 177.446V204.324C925.942 204.933 928.236 205.628 930 206.411V217.458C925.678 219.372 919.415 220.589 911.211 220.589C910.418 218.502 909.535 215.718 909.094 212.587C905.478 217.98 898.686 220.589 889.159 220.589C883.425 220.589 878.574 218.937 874.516 215.718C870.37 212.5 868.43 207.89 868.43 202.41C868.43 196.756 870.37 192.32 874.163 189.102C877.956 185.883 883.602 184.231 891.188 184.231H905.213V178.229C905.213 171.705 901.597 168.313 894.452 168.313C891.805 168.313 889.688 168.661 887.836 169.096C887.659 172.662 887.218 175.446 886.336 177.359H873.81C872.223 173.967 871.517 170.227 871.517 165.617ZM894.628 207.629C898.95 207.629 902.39 206.324 905.037 203.889V193.451H896.128C890.041 193.451 886.866 195.712 886.866 200.409C886.866 202.497 887.483 204.324 888.806 205.628C890.041 206.933 891.982 207.629 894.628 207.629Z" fill="white"/>
<path d="M160.229 84.497C159.08 84.8481 158.107 84.9359 157.134 85.726C155.808 87.4818 150.326 92.5736 149.795 94.5927C149.353 96.1729 144.843 97.0508 143.605 97.6653C138.477 100.211 136.266 105.127 133.525 109.868C130.784 114.521 123.798 117.154 121.765 122.158C118.493 130.235 116.017 138.487 112.745 146.651C110.712 151.655 112.834 157.45 113.099 162.541C113.187 163.595 113.895 164.385 113.895 165.438C113.895 168.686 112.834 171.671 112.038 174.832C110.358 181.065 108.943 187.122 107.97 193.531C107.44 197.042 107.882 200.554 108.589 203.978C109.385 207.577 109.12 211.176 109.739 214.688C110.535 219.077 111.773 222.94 113.806 226.978C115.486 230.314 117.874 233.738 118.493 237.337C118.67 238.215 118.758 239.62 119.377 240.322C120.969 242.341 126.363 243.131 128.573 243.922C135.913 246.467 143.075 248.574 149.265 253.315C152.625 255.861 155.277 259.372 158.991 261.479C163.324 263.937 167.215 266.308 170.84 269.644C172.167 270.873 174.023 273.243 175.615 273.858C177.384 274.56 179.417 274.911 181.274 275.35C182.777 275.701 184.015 276.491 185.519 276.842C188.613 277.457 191.62 277.632 194.803 277.632C200.02 277.632 205.149 278.071 210.366 278.071H217.882C221.419 278.071 224.514 277.018 227.962 276.403C229.642 276.14 231.322 275.174 232.914 275.174C234.683 275.174 236.716 274.735 238.485 274.296C242.729 273.243 247.681 270.785 250.068 267.01C250.864 265.693 252.102 264.815 252.986 263.498C254.755 260.689 256.347 257.792 258.027 254.895C259.353 252.7 260.945 250.769 262.183 248.574C263.597 245.941 264.128 242.605 265.72 239.795C267.046 237.513 266.604 235.23 266.339 232.685C265.72 226.276 263.597 220.131 264.216 213.722C264.482 210.65 262.89 207.489 262.536 204.417C262.094 199.764 258.822 196.34 258.822 191.599C258.822 189.756 258.292 189.053 257.319 187.473C256.877 186.771 255.551 184.576 254.843 184.576C253.429 184.576 254.401 176.149 254.49 175.095C254.843 172.022 255.816 167.809 257.938 165.263C258.646 164.385 258.38 162.98 258.38 161.927C258.38 158.854 259.088 155.782 259.53 152.797C260.237 148.056 262.536 143.579 262.536 138.75C262.536 136.907 263.067 134.976 262.978 133.22C262.802 130.323 257.054 129.357 257.673 125.67C258.203 122.597 259.265 119.7 259.265 116.54C259.265 113.292 258.469 109.868 258.469 106.532C258.469 105.215 256.789 104.162 255.993 103.196C255.374 102.406 255.197 101.704 254.578 101.001C252.721 99.1577 250.511 97.7531 248.123 96.5241C243.525 94.1538 239.104 91.7835 234.506 89.4132C232.295 88.2719 230.173 87.833 227.785 87.3062C226.017 86.8673 222.126 86.9551 222.126 84.2336C222.126 82.6534 220.623 83.1802 219.12 82.9168C213.549 81.9511 208.067 80.1075 202.496 79.1419C197.191 78.1762 191.266 77.7372 185.872 77.9128C184.104 78.0006 181.186 79.3174 179.771 80.3709C177.295 82.3023 172.167 80.8099 169.072 81.7755C166.154 82.9168 163.147 83.7069 160.229 84.497Z" fill="white"/>
<path d="M272.587 226.46V225.231C271.971 222.772 271.971 220.401 271.356 217.328C270.741 214.869 270.126 212.498 269.51 210.653C268.895 208.195 268.28 205.824 267.665 203.365V202.75C267.665 199.676 267.665 196.076 267.05 192.475C265.819 181.586 262.831 173.683 258.524 168.853C259.139 167.623 259.139 167.009 259.139 165.779C263.358 160.949 265.819 154.275 266.434 146.987C266.434 143.386 266.434 137.327 263.973 133.024C273.114 120.905 271.268 103.956 259.139 93.5941C251.229 86.3054 239.101 82.0902 226.972 82.0902C219.062 71.201 206.318 65.1416 192.431 65.1416C190.585 65.1416 188.827 65.1416 186.982 65.1416C185.136 65.1416 183.378 65.7563 181.533 65.7563C173.095 64.6147 164.658 64 157.363 64C148.837 64 142.158 64.6147 137.939 66.4589C137.939 66.4589 121.591 71.9035 117.285 74.9771C96.7186 91.3109 80.2831 113.704 71.2305 139.171C71.2305 139.786 70.6152 140.4 70.6152 141.015C70 146.46 70 153.134 70 156.734C70 157.349 70 157.964 70 157.964C70 169.468 71.2305 180.972 74.2187 191.334C77.2949 202.838 84.5019 224.089 102.08 236.823C101.465 236.823 100.849 237.438 99.619 237.438C97.158 238.052 95.4002 240.511 95.4002 242.882V243.497C95.4002 244.112 95.4002 244.112 95.4002 244.726V245.956V246.57C95.4002 247.8 96.0155 249.029 97.2459 250.786C98.4764 252.015 100.322 252.63 102.08 252.63C102.08 253.244 102.695 253.859 102.695 254.474V255.089C103.31 256.318 103.31 258.162 103.926 259.919C104.541 261.763 104.541 262.992 105.156 264.748C103.926 265.978 103.31 267.207 102.695 267.822C102.695 268.437 102.08 269.051 102.08 269.666V270.281C102.08 270.896 102.08 270.896 102.08 271.51V272.74V273.969C102.695 277.043 105.156 278.799 108.144 278.799C108.76 278.799 108.76 278.799 109.375 278.799C109.99 278.799 111.22 278.184 111.836 278.184C111.836 278.799 111.836 279.414 112.451 279.414C113.066 281.258 114.297 282.487 115.527 283.014C116.142 283.629 117.373 283.629 117.988 283.629C118.603 283.629 119.218 283.629 120.449 283.014C121.064 283.014 121.679 282.4 122.295 282.4C123.525 282.4 125.371 281.785 125.898 281.17H126.513C127.129 281.17 127.744 281.17 127.744 281.17C128.359 281.17 128.359 281.17 128.974 281.17H129.589C130.205 281.17 130.205 281.17 130.82 280.555C132.666 280.555 133.896 279.326 135.039 278.097C136.269 276.867 136.269 275.023 136.269 273.267C136.269 272.652 135.654 271.422 135.654 270.808C139.257 268.349 142.334 264.748 142.949 259.919C142.949 258.689 142.949 257.46 142.949 256.845C144.794 259.919 147.167 262.904 149.628 265.363C152.705 268.437 169.667 286 207.284 286C208.515 286 209.13 286 210.273 286C225.478 285.385 240.419 281.697 251.317 273.179C252.548 272.564 254.393 270.72 256.151 268.964L257.382 267.734C260.458 264.661 263.205 260.933 265.051 257.947C266.281 255.488 267.32 253.406 268.551 250.947C273.209 244.712 272.587 236.12 272.587 226.46ZM218.622 96.7555C219.237 96.7555 219.853 96.7555 220.468 97.3703C225.917 97.3703 230.136 97.985 234.442 99.2144H235.058C238.134 99.8291 240.507 100.444 242.968 101.673C249.032 104.747 253.866 111.333 251.493 118.622C250.878 121.081 248.505 122.837 245.429 124.681L244.813 125.296C242.968 127.14 239.979 127.755 238.134 128.369C237.518 128.369 237.518 128.369 236.903 128.984C236.903 128.984 236.903 128.984 236.288 128.984C233.827 129.599 231.454 129.599 228.993 129.599C218.095 129.599 206.581 125.998 191.991 118.095C190.761 117.48 189.531 117.48 189.003 117.48C188.388 117.48 188.388 117.48 187.773 117.48C186.542 117.48 185.927 117.48 184.697 118.095C184.081 118.095 183.466 118.71 183.466 118.71C183.466 118.71 183.466 118.71 182.851 118.71C179.775 120.554 177.402 122.31 174.326 122.31C173.095 122.31 171.249 122.31 170.107 122.31H168.261C167.031 121.695 165.8 121.695 165.185 121.695C163.339 121.695 160.966 122.31 159.736 123.54C157.89 125.384 156.66 127.14 156.66 130.214V130.828C156.66 131.443 156.66 131.443 156.66 132.058C158.505 139.961 157.89 145.406 154.814 150.236C154.199 151.465 152.968 152.695 152.353 153.836C151.738 155.066 149.892 155.68 148.75 157.437C148.75 157.437 148.75 157.437 148.134 157.437C147.519 157.437 147.519 157.437 146.904 157.437C144.443 157.437 142.07 158.666 140.224 160.51C138.378 162.354 138.378 165.34 138.994 167.799C139.609 170.258 139.609 172.014 139.609 173.244C139.609 174.473 138.994 176.229 138.378 178.074C137.763 179.918 136.533 180.532 133.545 181.147C131.699 181.147 129.941 182.377 128.711 183.606C128.095 183.606 127.48 183.606 126.865 183.606H126.25H125.634C125.019 183.606 123.789 183.606 123.173 184.221C121.943 184.835 120.713 185.45 120.097 186.065C118.252 184.835 116.494 182.991 115.879 180.006C115.263 176.932 117.109 173.946 121.328 169.731C123.173 167.272 124.404 164.286 123.173 161.828V161.213C123.789 159.983 123.789 158.754 124.404 157.612C125.019 156.383 126.25 154.539 126.865 153.397C127.48 152.168 128.711 150.324 129.326 149.182C130.556 147.953 131.171 146.108 131.787 145.581L132.402 144.967C134.863 141.893 136.621 138.907 139.697 135.834C146.376 128.545 153.671 121.871 161.494 116.426C171.161 109.752 182.148 104.308 192.431 100.707H193.661C199.726 99.4778 207.021 97.6337 213.085 97.6337C214.316 97.6337 214.931 97.6337 216.161 97.6337C217.392 96.7555 218.007 96.7555 218.622 96.7555ZM250.175 224.002V223.387C250.175 224.002 250.175 224.002 250.175 224.002ZM174.326 158.578C173.71 158.578 172.48 159.193 171.865 159.808C172.48 159.193 173.095 158.578 174.326 158.578C176.786 157.964 179.159 157.964 181.62 157.349C179.159 157.964 176.171 157.964 174.326 158.578ZM218.622 159.72C218.007 159.72 217.392 159.72 216.776 159.72C216.776 159.72 216.776 159.72 217.392 159.72C218.007 159.72 218.622 159.72 218.622 159.72ZM213.173 150.06C213.173 150.06 213.173 150.675 212.558 150.675C210.712 148.831 208.339 147.601 205.263 147.601C204.648 147.601 204.032 147.601 204.032 147.601C197.353 148.831 185.839 150.675 177.314 151.816C180.917 146.987 186.454 142.684 192.519 141.542C194.364 140.927 195.507 140.312 196.122 139.083C202.802 142.157 210.712 145.142 219.149 146.372C216.776 146.46 214.316 147.601 213.173 150.06ZM209.482 156.734C209.482 156.119 209.482 155.505 208.866 154.89C209.482 156.119 209.482 156.734 209.482 156.734ZM208.866 154.89L208.251 154.275C208.251 154.275 208.251 154.89 208.866 154.89ZM207.724 153.661L207.109 153.046C207.109 153.661 207.109 153.661 207.724 153.661ZM205.878 153.661C205.263 153.661 205.263 153.661 204.648 153.661H205.263C205.878 153.134 205.878 153.661 205.878 153.661ZM188.915 135.483C188.3 135.483 188.3 134.868 188.915 135.483V135.483ZM165.185 162.794C162.109 164.638 159.121 165.867 156.044 167.623C159.121 166.394 162.197 164.638 165.185 162.794ZM193.134 187.031C192.519 187.031 191.904 187.031 190.673 187.031C190.058 187.031 188.827 187.031 188.212 187.031C190.058 187.031 191.904 187.031 193.134 187.031ZM219.853 162.794C220.468 163.408 220.468 164.638 220.468 165.252C220.38 164.638 220.38 164.023 219.853 162.794C218.622 162.794 218.007 162.794 216.776 162.794C218.007 162.794 219.237 162.794 219.853 162.794ZM231.366 176.142C231.981 176.142 232.597 176.756 233.212 176.756C232.597 176.756 231.981 176.756 231.366 176.142C230.136 175.527 228.905 174.912 227.763 174.297C228.905 175.527 230.136 176.142 231.366 176.142ZM228.905 140.4C230.136 140.4 231.981 140.4 233.124 140.4C231.981 140.4 230.751 140.4 228.905 140.4ZM235.585 139.786C238.046 139.171 239.804 139.171 242.265 138.556C240.419 139.171 238.046 139.786 235.585 139.786ZM222.226 140.4C224.071 140.4 225.829 141.015 227.675 141.015C226.532 140.4 224.687 140.4 222.226 140.4ZM215.546 139.171C217.392 139.786 218.622 139.786 220.38 139.786C218.622 139.786 217.392 139.171 215.546 139.171ZM195.595 131.882C196.825 132.497 198.056 133.112 199.814 133.726C198.583 133.112 196.737 132.497 195.595 131.882ZM201.659 134.341C203.505 134.956 205.263 135.57 207.109 136.185C205.263 136.097 203.417 135.483 201.659 134.341ZM188.915 127.667C190.761 128.896 191.904 129.511 193.749 130.741C192.519 130.038 190.673 128.809 188.915 127.667ZM181.005 131.882H181.62C181.62 131.882 181.62 131.882 181.005 131.882ZM185.224 130.038C185.224 130.038 185.839 130.038 185.839 129.423C185.839 130.038 185.839 130.038 185.224 130.038ZM172.48 133.726C173.095 133.726 173.095 133.726 172.48 133.726V133.726ZM244.725 220.401C244.725 221.016 244.725 221.016 244.725 221.016C236.2 228.305 223.456 231.905 210.185 231.905C207.196 231.905 203.505 231.905 200.517 231.29C189.618 229.446 180.478 225.231 173.183 217.942C171.337 216.098 169.579 213.727 167.734 211.883C167.119 211.268 166.503 210.039 165.888 209.424C165.273 208.195 164.042 206.965 163.427 205.824C163.427 205.209 162.812 205.209 162.197 204.594C160.966 203.365 159.736 202.135 157.363 200.994C156.132 197.393 153.759 191.334 152.529 186.416C153.759 184.572 154.374 182.816 155.605 180.972C156.835 180.357 158.066 179.742 159.208 179.127L160.439 178.513L165.273 176.054C166.503 179.127 167.734 181.498 169.492 183.957C173.095 189.402 180.39 192.475 188.3 192.475C188.915 192.475 190.146 192.475 190.761 192.475C194.364 192.475 197.441 191.861 201.044 190.631C202.89 190.017 204.648 188.787 206.493 187.558C211.942 183.343 215.019 176.054 215.634 169.38C218.095 174.824 222.929 179.654 228.378 181.498C229.608 182.113 231.981 182.728 234.442 182.728C238.661 182.728 242.968 181.498 247.186 179.654C249.032 183.869 250.263 188.787 250.263 195.373C250.79 205.824 247.714 213.727 244.725 220.401ZM245.253 228.217C244.638 228.831 244.022 228.831 243.407 229.446C244.11 228.831 244.725 228.217 245.253 228.217ZM239.804 231.29C239.188 231.905 238.573 231.905 237.958 232.52C238.661 231.905 239.188 231.29 239.804 231.29ZM234.354 233.661C233.739 233.661 233.124 234.276 232.509 234.276C233.124 234.276 233.739 234.276 234.354 233.661ZM219.853 237.35C219.237 237.35 218.622 237.35 218.007 237.35C218.622 237.964 219.237 237.964 219.853 237.35ZM213.788 238.579C213.173 238.579 212.558 238.579 211.327 238.579C211.942 238.579 213.173 238.579 213.788 238.579ZM156.748 208.282C156.132 207.668 155.517 207.668 154.902 207.053C155.517 207.053 156.132 207.668 156.748 208.282ZM248.329 146.46H248.944H249.559C248.944 146.46 248.329 146.46 248.329 146.46ZM252.548 148.831C252.548 148.216 251.932 148.216 251.932 147.601C252.548 148.216 252.548 148.216 252.548 148.831ZM251.317 147.601C250.702 147.601 250.702 146.987 250.087 146.987C250.79 147.074 251.317 147.074 251.317 147.601ZM230.751 135.483C231.366 135.483 231.981 135.483 231.981 135.483C231.366 135.483 230.751 135.483 230.751 135.483ZM194.364 125.823C194.98 125.823 195.595 126.438 196.21 126.438C195.595 126.438 194.98 126.438 194.364 125.823ZM205.263 130.653C205.878 130.653 206.493 131.267 207.109 131.267C207.109 131.267 205.878 131.267 205.263 130.653ZM211.327 133.112C211.942 133.112 212.558 133.726 213.173 133.726C212.558 133.112 211.942 133.112 211.327 133.112ZM175.556 128.282C176.786 128.282 177.402 127.667 178.632 127.667C177.929 128.282 176.786 128.282 175.556 128.282ZM170.722 128.809H171.337C171.249 128.809 171.249 128.809 170.722 128.809ZM164.658 128.282C165.273 128.282 165.273 128.282 165.888 128.282C165.185 128.282 164.658 128.282 164.658 128.282ZM144.619 188.26C144.619 187.646 144.003 187.646 144.003 187.646L144.619 188.26ZM152.529 210.039H151.914C151.914 210.039 151.914 210.039 152.529 210.039ZM210.097 240.95H209.482C208.251 240.95 206.405 240.95 205.263 240.95C207.109 240.95 208.866 240.95 210.097 240.95ZM215.546 240.95C214.316 240.95 213.7 240.95 212.47 240.95C213.788 240.95 214.931 240.95 215.546 240.95ZM247.098 229.446C245.868 230.676 244.11 231.29 242.88 232.52C244.725 231.29 245.868 230.676 247.098 229.446ZM241.649 233.134C240.419 233.749 239.804 234.364 238.573 234.979C239.188 234.276 240.419 233.661 241.649 233.134ZM236.2 235.506C234.97 236.12 234.354 236.12 233.212 236.735C234.354 236.735 235.585 236.12 236.2 235.506ZM226.532 239.194C225.302 239.194 224.687 239.809 223.456 239.809C224.071 239.721 225.302 239.194 226.532 239.194ZM220.995 239.721C219.765 239.721 219.149 239.721 217.919 240.335C219.237 240.335 219.853 240.335 220.995 239.721ZM250.175 222.772C252.02 218.557 253.778 214.254 255.009 210.039C256.239 205.824 256.854 200.906 256.854 196.076C256.854 191.861 256.239 187.558 255.624 183.343C256.854 187.558 256.854 191.861 256.854 196.076C256.854 200.906 256.239 205.209 255.009 210.039C253.778 214.956 251.932 218.557 250.175 222.772ZM124.58 237.35C125.195 237.35 125.195 237.35 124.58 237.35V237.35ZM122.734 206.438C122.119 205.824 122.119 205.209 121.504 204.594C121.504 204.594 121.504 205.209 122.119 205.209C122.119 205.209 122.119 205.209 121.504 204.594C122.119 205.824 122.734 206.438 122.734 206.438ZM121.591 237.964H120.976C120.976 237.964 120.976 237.964 121.591 237.964ZM123.965 207.668L124.58 208.282C124.58 207.668 123.965 207.668 123.965 207.668ZM125.81 205.824C127.041 207.053 128.271 208.282 129.414 208.897C130.029 209.512 131.259 209.512 132.49 210.127C131.259 210.127 130.644 209.512 129.414 208.897C128.183 207.668 127.041 207.053 125.81 205.824ZM121.591 150.06C122.207 148.216 123.437 146.987 124.052 145.23C123.349 147.074 122.734 148.216 121.591 150.06ZM190.673 93.682C191.288 93.682 191.288 93.682 191.288 93.682C191.904 93.682 191.288 93.682 190.673 93.682ZM210.097 90.0815C210.712 90.0815 211.942 90.0815 212.558 90.0815C211.327 90.0815 210.712 90.0815 210.097 90.0815ZM197.353 92.4525C197.968 92.4525 198.583 92.4525 199.198 91.8378C198.583 91.8378 197.968 92.4525 197.353 92.4525ZM203.417 91.3109C204.032 91.3109 205.263 91.3109 205.878 90.6962C205.263 90.6962 204.032 91.3109 203.417 91.3109ZM151.914 101.585C142.773 108.259 134.248 116.163 127.656 124.593C124.58 128.194 121.591 132.497 118.515 137.327C119.746 134.253 120.976 130.653 123.349 127.052C129.414 117.392 137.939 108.874 150.068 100.356C160.966 92.4525 172.48 85.1638 184.609 82.7927C186.454 82.178 188.827 82.178 190.673 82.178C176.786 86.3932 163.427 93.0672 151.914 101.585ZM132.49 128.809C135.566 124.593 139.169 120.905 143.388 117.305C139.169 120.378 135.478 124.593 132.49 128.809C129.414 132.409 126.425 136.712 123.349 140.927C126.425 136.097 129.414 132.497 132.49 128.809ZM113.066 236.12C114.297 236.12 114.912 236.12 116.142 235.506C115.527 236.12 114.297 236.12 113.066 236.12C112.451 236.12 112.451 236.12 112.451 236.12C113.066 236.12 113.066 236.12 113.066 236.12ZM122.734 243.409C122.119 243.409 121.504 243.409 121.504 243.409C122.119 243.409 122.734 243.409 122.734 243.409ZM131.259 257.372C131.259 257.987 131.259 258.601 131.259 259.216C131.259 259.831 131.259 260.445 130.644 260.445C130.644 259.831 131.259 259.216 131.259 259.216C131.875 257.987 131.259 257.987 131.259 257.372ZM131.259 232.52C129.414 231.29 127.041 231.29 125.195 231.29C124.58 225.231 124.58 220.401 125.81 215.571C127.656 216.186 130.029 216.801 131.875 217.415C131.259 222.86 132.49 228.305 133.105 231.993C133.105 233.222 133.72 233.837 133.72 235.066C133.105 233.661 132.49 233.134 131.259 232.52ZM137.324 203.365C136.709 203.365 136.709 203.365 136.093 203.365C134.863 203.365 133.632 203.365 132.49 202.75C131.259 202.135 130.029 200.906 128.886 199.15C128.271 197.305 128.886 196.076 130.117 195.549C130.732 194.934 131.347 194.934 131.963 194.32C133.193 194.934 134.423 195.549 136.181 195.549C136.181 196.778 136.796 198.008 136.796 199.15C137.324 200.379 137.324 201.608 137.324 203.365ZM138.554 209.424H137.939C137.939 209.424 137.939 209.424 138.554 209.424ZM133.72 187.646C133.72 187.646 134.336 187.646 134.336 188.26C134.248 188.26 133.72 188.26 133.72 187.646ZM134.863 188.26C134.863 188.26 135.478 188.26 135.478 188.875C135.478 188.875 134.863 188.875 134.863 188.26ZM137.324 188.875H136.709H136.093C136.709 188.875 137.324 188.875 137.324 188.875C138.554 189.49 139.785 190.104 140.927 191.334C141.543 193.178 142.158 195.549 142.158 197.393C141.543 194.934 140.927 193.178 140.927 191.334C140.312 190.104 139.169 189.49 137.324 188.875ZM147.607 210.039C146.992 210.039 145.761 210.653 145.146 210.653C146.376 210.653 146.992 210.039 147.607 210.039ZM150.068 210.039C149.453 210.039 148.837 210.039 148.222 210.039C149.453 210.039 149.453 210.039 150.068 210.039ZM149.453 216.098C150.068 216.098 150.068 216.098 150.683 216.098H151.298C151.298 216.713 151.914 216.713 151.914 217.328C153.144 218.557 154.374 219.786 155.517 221.543L156.132 222.157L156.748 223.387L157.363 224.616C157.363 224.616 157.363 224.616 157.363 225.231C162.197 230.676 166.503 234.364 170.722 237.35C180.39 244.024 191.991 247.624 204.648 248.239C205.878 248.239 207.724 248.239 208.866 248.239C224.599 248.239 238.573 244.024 250.087 235.506L250.702 234.891C253.163 233.047 254.921 231.29 257.382 229.446C257.382 230.676 257.382 231.29 257.382 232.52C256.766 236.12 256.766 238.579 256.151 241.653V242.267C256.151 243.497 255.536 244.112 255.536 245.341C254.921 247.185 254.921 248.415 254.305 249.556C253.69 251.4 253.075 252.63 251.845 254.386C243.934 265.89 226.972 273.179 206.933 273.179C197.265 273.179 186.894 271.335 179.072 267.734C163.339 261.675 151.738 247.097 148.134 229.534C148.222 222.157 147.607 217.942 149.453 216.098ZM260.458 215.483C259.843 216.713 259.227 217.942 257.997 218.557C259.227 217.328 259.843 216.098 260.458 215.483ZM248.944 92.4525L249.559 93.0672C249.559 93.0672 249.559 93.0672 248.944 92.4525ZM241.649 89.4668C242.265 89.4668 242.265 89.4668 242.88 90.0815C242.88 90.0815 242.265 90.0815 241.649 89.4668ZM220.995 90.6962C226.444 90.6962 231.278 91.3109 236.727 93.1551C231.366 91.8378 225.917 91.3109 220.995 90.6962ZM212.558 76.1187C213.173 76.7334 214.403 77.3481 215.019 77.9628C213.788 76.7334 213.173 76.1187 212.558 76.1187ZM207.724 80.3339C208.954 80.9486 210.8 82.178 211.942 82.7927C210.097 82.178 208.866 80.9486 207.724 80.3339ZM188.3 76.7334C188.915 76.7334 190.146 76.7334 190.761 76.7334C190.058 76.1187 188.915 76.7334 188.3 76.7334ZM191.904 76.1187C193.134 76.1187 194.98 76.1187 196.122 76.1187C194.364 76.7334 193.134 76.7334 191.904 76.1187ZM197.353 76.7334C199.198 76.7334 200.429 77.3481 202.187 77.9628C200.429 77.3481 198.583 77.3481 197.353 76.7334ZM202.187 77.9628C203.417 78.5775 204.648 79.1922 205.79 79.807C205.263 79.1922 203.417 78.5775 202.187 77.9628ZM182.851 77.3481C184.081 77.3481 185.312 76.7334 186.454 76.7334C185.224 76.7334 183.993 76.7334 182.851 77.3481ZM109.375 239.194C108.76 237.964 108.76 236.735 108.144 235.593C108.847 236.735 109.375 237.964 109.375 239.194ZM136.709 210.653C137.324 210.653 137.324 210.653 137.939 210.653C137.324 210.653 136.709 210.653 136.709 210.653ZM140.312 208.809C140.927 208.809 140.927 208.809 140.312 208.809C140.927 208.195 140.927 208.195 141.543 207.58C140.927 208.195 140.927 208.809 140.312 209.424C140.312 209.424 140.312 209.424 140.312 208.809ZM144.619 205.209C144.003 205.824 142.773 206.438 142.158 207.053C142.773 206.438 143.388 205.824 144.619 205.209ZM181.005 276.691C179.159 276.077 178.017 275.462 176.786 274.847C177.929 275.55 179.775 276.165 181.005 276.691ZM173.71 273.706C172.48 273.091 171.249 272.476 170.107 271.862C171.249 272.476 172.48 273.706 173.71 273.706ZM162.812 267.646C161.581 267.032 160.966 266.417 160.351 265.802C160.351 266.417 161.581 267.032 162.812 267.646ZM191.288 276.165C189.443 275.55 187.685 275.55 185.839 274.935C187.685 275.55 189.53 276.165 191.288 276.165ZM252.548 262.202C251.317 263.431 250.087 264.046 249.472 265.188C250.79 264.573 251.932 263.431 252.548 262.202ZM242.88 270.105C241.034 271.335 239.276 271.949 237.431 272.564C238.661 271.862 240.419 270.632 242.88 270.105ZM228.905 275.55C227.675 276.165 225.917 276.165 224.071 276.779C225.917 276.165 227.06 275.55 228.905 275.55ZM215.546 277.306C213.085 277.306 211.327 277.306 208.866 277.306C211.327 277.921 213.173 277.921 215.546 277.306ZM254.393 260.972C255.624 259.743 257.47 257.899 257.997 256.142C256.854 257.987 255.624 259.743 254.393 260.972ZM261.073 203.365C261.073 199.764 261.073 196.076 260.458 193.09C261.688 196.164 261.688 199.764 261.073 203.365ZM235.585 88.2373C234.97 88.2373 234.97 88.2373 234.354 88.2373C234.354 88.2373 234.97 88.2373 235.585 88.2373ZM227.06 87.0079C225.829 87.0079 223.983 87.0079 222.841 87.0079C224.687 87.6226 225.917 87.0079 227.06 87.0079ZM222.841 85.2516C222.226 84.0222 220.995 82.7927 219.765 81.6511C220.38 82.7927 221.61 84.0222 222.841 85.2516ZM202.187 71.9035C200.956 71.9035 200.341 71.2888 199.111 71.2888C200.429 71.2888 201.044 71.2888 202.187 71.9035ZM157.978 70.0593C156.748 70.0593 156.132 70.0593 154.902 70.0593C155.517 70.0593 156.748 70.0593 157.978 70.0593ZM149.453 70.0593C150.683 70.0593 151.298 70.0593 152.529 70.0593C151.914 70.0593 150.683 70.0593 149.453 70.0593ZM143.388 71.2888C142.158 71.2888 140.927 71.9035 139.785 71.9035C140.312 71.9035 142.158 71.2888 143.388 71.2888ZM81.5136 196.164C82.7441 200.379 84.5898 204.682 86.3476 208.282C84.5898 204.594 83.3593 200.379 81.5136 196.164ZM103.31 247.009H103.926C103.31 247.009 103.31 247.009 103.31 247.009ZM107.617 248.854C107.002 248.239 106.386 247.624 105.771 247.009C107.002 247.624 107.002 248.239 107.617 248.854C108.232 250.083 108.847 251.927 109.463 253.069C108.847 251.927 108.847 250.698 107.617 248.854ZM109.99 270.632C109.99 270.017 109.99 270.017 109.99 270.017C109.99 269.403 110.605 269.403 111.22 269.403C111.836 269.403 111.836 268.788 112.451 268.173C111.836 268.788 111.836 268.788 111.22 269.403C110.605 269.403 109.99 269.403 109.99 270.017C109.99 270.105 109.99 270.105 109.99 270.632C109.99 271.247 110.605 272.476 110.605 273.091C109.99 272.476 109.99 271.247 109.99 270.632ZM119.746 278.536C119.131 276.077 118.515 274.32 117.9 271.862C119.131 273.706 119.131 276.165 119.746 278.536C120.976 277.921 122.207 277.921 123.965 277.921C122.734 277.306 121.591 277.921 119.746 278.536ZM137.939 224.002C137.939 224.616 137.939 225.231 138.554 226.46C138.554 225.846 137.939 225.231 137.939 224.002ZM138.554 227.075C138.554 228.305 139.169 228.919 139.169 230.149C139.169 229.446 138.554 228.217 138.554 227.075ZM156.132 262.202C156.747 262.816 157.978 264.046 158.593 264.661C157.363 264.046 156.747 262.816 156.132 262.202ZM209.482 280.994C207.636 280.994 206.405 280.994 204.648 280.994C207.109 280.994 209.482 280.994 212.558 280.994C211.327 280.994 210.097 280.994 209.482 280.994ZM184.609 277.921C186.454 278.536 187.685 278.536 189.443 279.15C187.685 278.536 186.454 277.921 184.609 277.921Z" fill="white"/>
<path d="M215.636 194.753C215.312 194.753 214.988 195.022 214.988 195.469C214.988 195.916 215.231 196.184 215.636 196.184C215.879 196.363 216.203 196.542 216.526 196.542C220.25 197.257 224.46 196.363 227.779 195.558C228.832 195.201 229.884 194.843 230.856 194.396C230.937 194.396 230.937 194.306 231.017 194.306H231.098C231.179 194.306 231.26 194.217 231.341 194.217C231.422 194.127 231.584 194.127 231.665 193.949L231.746 193.859L231.827 193.77L231.908 193.68L232.07 193.501C233.527 192.249 234.66 190.371 234.822 187.867C235.146 182.681 232.556 178.925 229.075 176.778C225.593 174.722 221.141 174.364 217.498 176.152C217.255 176.242 217.093 176.6 217.174 176.868C217.255 177.136 217.498 177.404 217.741 177.404H217.822C220.736 176.957 223.893 177.226 226.16 179.282C228.67 181.607 229.317 185.542 227.698 188.583C226.484 190.55 224.379 192.16 221.869 193.323C221.465 194.127 218.469 194.753 215.636 194.753Z" fill="black"/>
<path d="M143.782 208.656C144.62 208.837 145.18 208.385 145.366 207.843C145.552 207.392 145.552 206.67 144.9 206.218C144.9 206.218 144.807 206.218 144.807 206.128C143.688 205.586 143.129 204.954 142.943 204.232C142.757 203.419 142.85 202.516 143.036 201.343C143.036 201.072 143.129 200.891 143.222 200.62V200.53C143.316 200.349 143.316 200.079 143.409 199.898C143.502 199.356 143.595 198.815 143.409 198.273C143.036 196.106 140.986 194.571 139.402 193.758C137.724 192.946 135.581 192.585 133.624 193.036C131.76 193.487 130.082 194.661 129.616 196.918C129.337 198.183 130.921 199.266 132.039 198.183C132.039 198.183 132.039 198.183 132.133 198.092C133.437 196.557 135.208 195.745 137.072 196.467C138.377 196.918 139.402 197.641 139.961 198.815C140.24 199.447 140.24 199.898 140.24 200.44C140.24 200.711 140.147 200.981 140.147 201.252C140.054 201.523 140.054 201.884 139.961 202.336C139.588 205.135 140.986 207.663 143.782 208.656Z" fill="black"/>
<path d="M189.501 220.959C190.662 223.453 192.359 224.788 194.413 225.59C196.378 226.302 198.701 226.48 201.112 226.48C215.939 227.015 232.016 223.631 245.593 218.644C246.486 218.288 246.843 217.486 246.754 216.685C246.665 216.328 246.486 215.883 246.218 215.616C245.861 215.349 245.504 215.171 244.968 215.171C233.981 215.349 222.817 215.171 211.83 214.369C209.329 214.191 206.829 214.013 204.328 213.746C202.541 213.568 201.291 213.123 200.308 212.499C199.326 211.876 198.433 210.985 197.271 209.828C197.182 209.739 197.093 209.649 196.914 209.471C194.86 207.512 192.805 205.464 190.751 203.416C188.697 201.368 186.642 199.319 184.588 197.36C184.142 196.915 183.606 196.737 183.159 196.826C182.623 196.826 182.177 197.093 181.909 197.449C181.283 198.073 180.926 199.141 181.551 200.032C183.248 207.067 186.553 214.547 189.501 220.959ZM195.842 213.835C197.629 215.527 199.058 216.507 200.666 217.041C202.273 217.575 204.06 217.664 206.561 217.842C215.224 218.555 224.067 219 232.82 219C224.335 221.226 215.671 222.562 206.829 223.096H206.739C203.792 223.275 201.023 223.453 198.165 223.096C195.574 222.829 194.145 221.939 193.073 220.692C192.091 219.445 191.466 217.842 190.662 215.794C190.573 215.527 190.483 215.349 190.394 215.082C189.769 213.657 189.233 212.143 188.697 210.629C187.982 208.67 187.178 206.622 186.375 204.663C188.25 206.355 190.037 208.136 191.912 209.917C193.163 211.252 194.503 212.588 195.842 213.835Z" fill="black"/>
<path d="M266.532 226.085C266.18 223.458 265.916 220.657 265.387 218.03C264.419 213.127 262.745 208.574 261.953 203.583C261.777 203.233 261.777 202.97 261.601 202.62C261.777 199.03 261.777 195.616 261.248 192.113C260.456 185.547 258.254 172.764 251.385 169.174C252.706 167.248 253.499 164.884 253.675 162.958C253.675 162.607 253.675 162.345 253.675 161.994C258.078 158.054 260.28 151.488 260.632 145.622C260.808 141.069 260.104 134.502 256.317 131.35C256.933 130.737 257.638 130.037 258.254 129.424C266.356 119.618 265.035 105.171 255.436 96.8533C247.334 89.8488 234.565 86.1715 223.205 87.3973C223.205 86.7844 223.205 86.084 222.676 85.296C215.191 74.0013 201.365 69.1858 187.979 70.6742C186.042 70.8493 184.192 71.1996 182.255 71.6373C167.284 69.7111 148.526 69.0107 139.632 71.8124C136.638 72.7756 123.692 77.5035 121.226 79.5173C100.884 95.2773 85.5604 116.991 77.0182 141.069C77.0182 141.244 77.0182 141.419 77.0182 141.594C75.5211 146.847 76.0495 155.515 76.0495 157.967C76.0495 168.649 77.1943 179.243 79.8362 189.574C84.1514 206.297 93.0458 223.633 107.841 233.264C108.633 235.716 109.514 238.518 110.13 240.006C107.136 240.969 104.406 241.845 101.412 242.808V243.158C101.588 243.946 101.764 244.647 101.94 245.435C101.94 245.785 102.116 245.96 102.293 246.048C102.645 246.398 103.261 246.398 103.79 246.223C105.463 246.223 106.96 247.186 107.753 248.499C108.545 249.812 109.074 251.476 109.602 252.877C110.571 256.292 111.451 259.619 112.42 263.033C112.772 263.996 113.036 265.135 112.948 266.185C112.772 267.324 112.156 268.287 111.099 268.637C110.747 268.812 110.13 268.812 109.954 269.25C109.954 269.425 109.954 269.6 109.954 269.863C110.13 270.651 110.306 271.701 110.483 272.489C113.124 271.964 115.766 271.351 118.408 270.826C119.025 273.102 119.553 275.379 120.258 277.567C121.579 277.042 122.9 276.779 124.221 276.779C123.604 274.328 122.9 271.701 122.283 269.25C123.604 269.075 124.925 268.637 126.246 267.936C126.862 270.213 127.567 272.489 128.183 274.853C128.183 275.028 128.36 275.379 128.536 275.379C128.712 275.554 129.064 275.379 129.152 275.379C130.121 275.028 131.001 274.766 131.97 274.591C131.442 271.964 131.002 269.512 130.297 266.886C134.436 266.536 138.223 263.121 138.839 259.181C139.456 255.066 137.166 250.688 133.379 249.024C133.731 246.923 133.731 244.647 132.851 242.458C132.234 240.356 130.737 238.518 128.712 237.555C126.774 236.592 124.397 236.592 122.283 237.029C122.107 237.029 120.61 237.38 120.434 237.204C120.258 237.029 120.082 236.854 120.082 236.679C119.729 235.891 119.289 234.403 118.761 232.914C118.937 232.739 118.937 232.564 119.113 232.301C117.792 223.108 118.32 214.002 122.9 206.122C122.547 205.597 122.283 204.984 121.931 204.459C125.894 210.675 134.612 212.952 141.041 208.399C137.606 209.712 133.115 209.362 130.033 207.873C127.215 206.56 124.925 203.933 123.428 201.132C123.428 200.957 123.252 200.957 123.252 200.781C123.252 200.606 123.076 200.431 123.076 200.431C121.931 196.141 122.547 191.588 126.862 189.312C127.215 189.137 127.039 188.786 126.686 188.699C126.686 188.699 126.51 188.699 126.334 188.699C126.334 188.699 126.334 188.699 126.158 188.699C126.158 188.699 126.158 188.699 125.982 188.699H125.806C125.806 188.699 125.806 188.699 125.63 188.699C123.956 189.312 122.371 190.362 121.314 191.851C121.138 191.676 120.786 191.501 120.522 191.325C114.886 189.662 110.659 185.459 109.954 179.418C109.338 172.851 112.948 168.474 117.352 164.183C118.144 163.395 117.704 162.257 116.735 162.082C117.087 159.63 118.056 157.004 119.201 154.377C121.05 151.4 122.635 148.161 124.485 145.184C125.63 143.52 126.598 141.944 127.479 140.631C127.655 140.456 127.655 140.281 127.831 140.106C130.121 136.866 132.587 133.714 135.405 130.65C142.186 122.945 149.935 116.115 158.301 110.162C168.517 103.157 179.525 97.5537 191.237 93.7888C191.414 93.7888 191.59 93.6137 191.766 93.6137C199.956 91.6875 209.555 89.236 218.273 90.1991C218.625 90.3742 218.89 90.3742 219.242 90.3742C219.858 90.5493 220.563 90.5493 221.091 90.7244C226.375 90.8995 231.659 91.5124 236.767 93.0008C240.025 93.5262 243.195 94.4893 246.454 96.2404C254.996 100.618 261.072 110.687 257.462 120.318C255.965 124.433 252.882 127.323 249.096 129.687C246.63 131.788 243.371 133.101 240.025 134.064C239.408 134.415 238.528 134.59 237.911 134.677C220.563 137.479 204.447 131.263 189.476 123.12C189.124 122.945 188.86 122.945 188.684 122.945C188.155 122.77 187.891 122.945 187.715 123.12C187.363 123.12 187.186 123.295 186.922 123.47C183.488 125.571 179.965 127.585 175.914 128.198C172.92 128.723 170.19 128.548 167.196 128.548C165.699 127.235 162.881 128.023 162.881 130.387C162.881 130.387 162.881 130.387 162.881 130.562C162.881 130.737 162.881 131.087 162.881 131.175C164.378 139.055 164.554 146.41 160.063 153.414C159.094 154.902 158.125 156.216 156.892 157.529C155.395 159.193 153.634 160.681 151.785 161.907C150.64 162.52 149.671 163.22 148.614 163.833C146.941 161.994 143.859 163.22 144.475 165.759C145.092 168.736 145.62 171.188 145.268 173.639C144.916 175.741 144.299 177.93 143.33 180.031C141.217 184.146 138.399 185.722 133.467 186.247C133.115 186.247 132.851 186.773 133.115 187.035C133.115 187.035 134.964 188.874 137.518 188.524C138.839 189.137 139.984 189.837 140.953 190.8C141.481 192.726 141.921 194.74 142.45 196.841C143.066 199.468 143.771 202.27 144.299 204.897C136.373 210.15 137.078 221.62 139.191 229.587C142.186 241.057 147.734 252.702 156.012 261.37C161.736 267.936 179.701 280.807 212.285 280.019C225.582 279.669 238.968 275.466 249.536 267.236C250.505 266.448 252.97 264.084 255.172 262.158C257.462 259.881 259.575 257.08 261.072 254.103C262.041 252.176 262.922 249.988 263.538 247.711C266.356 240.969 266.885 233.44 266.532 226.085ZM129.857 254.015C130.209 254.19 130.473 254.628 130.649 254.978C131.266 255.941 131.618 256.904 131.442 258.13C131.266 259.093 130.649 260.056 129.769 260.582C128.976 261.195 127.919 261.545 126.951 262.07C125.013 262.858 122.812 263.383 120.698 263.734C120.082 261.282 119.377 258.656 118.584 256.204C118.761 256.029 118.937 256.029 119.113 255.854C121.226 255.241 123.516 254.716 125.718 254.015C126.334 253.84 127.215 253.665 127.831 253.49C128.712 253.752 129.416 253.752 129.857 254.015ZM121.491 242.896C122.283 242.72 123.34 242.37 124.132 242.72C125.453 243.246 125.982 244.647 126.246 245.96C126.422 247.273 126.422 248.937 125.453 249.725C124.925 250.075 124.309 250.338 123.604 250.513C121.755 251.038 119.993 251.476 118.144 252.176C117.968 252.176 117.968 252.176 117.792 252.176C117.616 252.176 117.616 252.001 117.616 251.826C116.999 249.55 116.119 247.098 115.502 244.822C117.352 244.034 119.377 243.596 121.491 242.896ZM116.031 235.016C116.383 235.804 116.559 236.854 116.823 237.992C115.502 238.343 114.886 238.518 113.565 238.78C113.213 237.642 112.948 236.679 112.596 235.541C112.772 235.541 112.948 235.716 113.213 235.716C114.269 235.716 115.238 235.541 116.031 235.016ZM211.58 83.8075C191.325 86.6093 172.039 94.4893 155.571 106.397C147.029 112.613 139.103 119.968 132.499 128.286C126.598 135.64 119.817 144.658 116.823 153.852C110.747 151.75 110.923 145.184 111.539 139.405C112.684 133.802 115.15 128.636 118.144 123.82C125.189 112.351 135.229 103.157 146.325 95.5399C157.333 87.66 169.662 79.8675 183.047 77.0658C192.911 75.1395 203.919 76.5404 211.492 82.932C211.668 83.2822 211.668 83.4573 211.58 83.8075ZM257.021 145.534C256.669 148.949 255.524 151.75 254.027 154.552C254.027 152.451 253.851 151.138 253.851 151.138C253.851 148.161 251.209 145.884 248.215 146.41C247.863 146.41 247.422 146.585 247.07 146.585C247.07 145.797 246.894 144.746 246.894 143.958C246.718 142.032 246.718 139.58 245.925 137.566C246.101 137.391 246.277 137.391 246.454 137.216C246.63 137.041 246.982 136.866 247.246 136.866C249.712 136.341 251.561 135.027 253.675 133.714C254.203 133.364 254.996 133.364 255.524 133.714C255.965 137.654 257.462 141.419 257.021 145.534ZM164.114 156.654C165.435 154.99 166.403 153.064 167.284 151.05C167.46 152.013 168.605 152.714 169.574 152.714C173.008 144.658 181.903 137.304 190.797 135.203C187.01 134.064 181.726 136.691 178.82 138.442C174.417 141.069 170.895 144.658 168.077 148.949C169.926 143.87 170.366 138.179 169.221 133.101C175.826 134.59 184.368 131.438 189.124 127.673C202.95 136.866 225.67 143.695 242.491 138.354C242.491 138.354 242.491 138.354 242.667 138.354C242.315 140.456 242.843 142.732 243.019 144.921C243.019 145.709 243.019 146.76 242.843 147.548C235.446 148.861 226.375 150.35 220.739 151.313C218.801 151.663 217.481 153.764 217.921 155.69C218.273 156.654 218.537 157.967 218.89 159.28C216.071 158.93 212.461 159.806 209.819 161.382C209.819 159.543 209.643 157.967 209.467 156.654C209.291 154.377 207.177 152.714 204.887 153.064C196.962 154.377 183.135 156.654 174.065 158.142C170.807 158.755 168.781 162.082 169.926 165.146C169.926 165.146 171.863 171.538 174.505 177.404C174.329 177.229 174.329 177.054 174.153 176.879C171.511 172.151 170.542 166.722 167.724 162.17C167.548 161.994 167.372 162.17 167.372 162.345C167.548 163.308 167.724 164.446 167.988 165.584C167.812 165.409 167.812 165.059 167.636 164.971C167.284 164.183 167.02 162.87 166.315 162.17C166.139 161.994 165.699 161.994 165.523 162.345V162.52C165.347 162.52 165.17 162.52 164.994 162.695C162 164.358 159.094 165.934 155.924 167.423C154.25 168.211 152.489 169.086 150.64 169.874C150.64 168.911 150.464 168.036 150.111 167.073C156.012 166.11 161.648 160.068 164.114 156.654ZM146.677 183.445C148.174 181.519 149.495 179.068 150.464 176.266C152.929 175.478 155.219 174.165 157.509 173.026C160.943 171.363 164.466 169.787 167.9 168.123C167.9 168.298 168.077 168.298 168.077 168.474C168.429 168.999 169.045 168.649 169.221 168.298C170.366 172.589 172.216 177.142 174.681 180.206C177.94 184.584 183.576 186.422 189.036 186.422C192.646 186.773 196.433 186.247 199.603 185.284C200.924 184.759 202.245 183.971 203.566 183.008C207.97 179.243 210.523 173.377 210.347 167.423C210.347 166.898 210.347 166.285 210.347 165.759C211.492 164.621 212.813 163.658 214.486 162.958C215.631 162.432 216.6 162.345 217.657 162.345C218.625 162.345 219.506 162.52 220.475 162.52C220.827 163.308 221.003 164.183 221.267 164.796C222.94 169.874 226.727 173.99 231.659 175.916C232.98 176.441 234.477 176.704 235.622 176.704C239.408 176.704 243.724 175.39 247.334 173.464C248.303 172.939 249.184 172.151 249.976 171.363C255.612 177.93 257.021 187.21 257.021 195.616C257.021 205.247 254.379 213.652 250.593 222.32C250.417 222.845 250.24 223.283 250.417 223.809C237.735 235.628 217.128 239.831 199.251 237.029C187.715 235.191 176.883 230.112 168.429 222.145C166.139 220.044 164.114 217.592 162.176 215.141C161.56 214.177 160.855 213.214 160.239 211.989C159.622 210.85 158.918 209.887 158.125 208.837C157.949 208.661 157.949 208.486 157.773 208.311C156.628 207.173 155.483 206.035 153.37 205.334C153.194 205.159 153.018 205.159 152.753 204.984C151.609 202.533 147.117 189.749 145.708 184.496C145.972 184.496 146.325 183.971 146.677 183.445ZM142.89 188.436C142.714 187.911 143.066 187.648 143.507 187.473C144.035 187.298 144.475 187.473 144.651 187.998C146.501 193.689 148.438 199.293 150.728 204.897C149.407 204.546 147.91 204.546 146.413 204.897C145.004 199.381 144.563 193.777 142.89 188.436ZM263.45 240.619C263.274 242.108 262.922 243.421 262.657 244.734C262.305 246.398 261.865 247.886 261.336 249.287C260.72 251.388 259.839 253.227 258.342 255.679C242.227 279.056 202.686 281.683 178.028 271.526C160.063 264.347 147.381 248.149 143.595 229.324C142.45 224.071 140.953 216.104 144.74 211.463C145.092 211.113 145.268 210.85 145.532 210.5C148.526 209.012 151.785 209.012 154.603 210.15C156.54 212.426 158.566 214.528 160.503 217.067C160.679 217.242 160.679 217.417 160.855 217.592C161.384 218.205 162 219.081 162.528 219.693C166.139 223.808 170.102 227.573 174.681 230.463C183.752 236.504 194.584 239.831 205.68 240.269C220.651 241.057 235.798 237.467 247.687 228.799C247.687 228.624 247.863 228.624 248.039 228.449C250.681 226.523 253.146 224.334 255.436 222.057C256.757 220.744 257.726 219.256 258.871 217.767C259.487 216.804 260.368 215.841 260.984 214.615C260.456 215.228 259.839 215.929 259.135 216.541L258.959 216.717C259.927 214.09 260.632 211.288 261.072 208.574C262.745 215.753 264.683 222.845 264.683 230.375C264.419 234.052 264.066 237.38 263.45 240.619Z" fill="black"/>
</svg>
